<?xml version="1.0" encoding="UTF-8" standalone="no"?>
<!-- Created with Inkscape (http://www.inkscape.org/) -->

<svg
   width="128mm"
   height="128mm"
   viewBox="0 0 128 128"
   version="1.1"
   id="svg5"
   inkscape:export-filename="quarky.svg"
   inkscape:export-xdpi="25.4"
   inkscape:export-ydpi="25.4"
   sodipodi:docname="error.svg"
   xml:space="preserve"
   inkscape:version="1.2.2 (b0a8486541, 2022-12-01)"
   xmlns:inkscape="http://www.inkscape.org/namespaces/inkscape"
   xmlns:sodipodi="http://sodipodi.sourceforge.net/DTD/sodipodi-0.dtd"
   xmlns:xlink="http://www.w3.org/1999/xlink"
   xmlns="http://www.w3.org/2000/svg"
   xmlns:svg="http://www.w3.org/2000/svg"><sodipodi:namedview
     id="namedview7"
     pagecolor="#505050"
     bordercolor="#eeeeee"
     borderopacity="1"
     inkscape:showpageshadow="0"
     inkscape:pageopacity="0"
     inkscape:pagecheckerboard="0"
     inkscape:deskcolor="#505050"
     inkscape:document-units="mm"
     showgrid="false"
     inkscape:zoom="0.90509668"
     inkscape:cx="307.70194"
     inkscape:cy="207.71262"
     inkscape:window-width="1920"
     inkscape:window-height="1014"
     inkscape:window-x="0"
     inkscape:window-y="0"
     inkscape:window-maximized="1"
     inkscape:current-layer="layer1" /><defs
     id="defs2"><inkscape:path-effect
       effect="powerstroke"
       id="path-effect636"
       is_visible="true"
       lpeversion="1"
       offset_points="0.77592125,1.1510791"
       not_jump="true"
       sort_points="true"
       interpolator_type="CentripetalCatmullRom"
       interpolator_beta="0.75"
       start_linecap_type="round"
       linejoin_type="spiro"
       miter_limit="4"
       scale_width="1"
       end_linecap_type="round" /><inkscape:path-effect
       effect="simplify"
       id="path-effect634"
       is_visible="true"
       lpeversion="1"
       steps="1"
       threshold="0.0047745358"
       smooth_angles="0"
       helper_size="0"
       simplify_individual_paths="false"
       simplify_just_coalesce="false"
       step="1" /><inkscape:path-effect
       effect="powerstroke"
       id="path-effect629"
       is_visible="true"
       lpeversion="1"
       offset_points="0.86961758,1.1510791"
       not_jump="true"
       sort_points="true"
       interpolator_type="CentripetalCatmullRom"
       interpolator_beta="0.75"
       start_linecap_type="round"
       linejoin_type="spiro"
       miter_limit="4"
       scale_width="1"
       end_linecap_type="round" /><inkscape:path-effect
       effect="simplify"
       id="path-effect627"
       is_visible="true"
       lpeversion="1"
       steps="1"
       threshold="0.0047745358"
       smooth_angles="0"
       helper_size="0"
       simplify_individual_paths="false"
       simplify_just_coalesce="false"
       step="1" /><inkscape:path-effect
       effect="bspline"
       id="path-effect506"
       is_visible="true"
       lpeversion="1"
       weight="33.333333"
       steps="2"
       helper_size="0"
       apply_no_weight="true"
       apply_with_weight="true"
       only_selected="false" /></defs><g
     inkscape:label="Victim"
     inkscape:groupmode="layer"
     id="layer1"><path
       id="path980"
       style="fill:#000000;stroke:#000000;stroke-width:0.239908;stroke-opacity:0"
       d="m 30.22019,105.07655 c -0.824162,8e-5 -1.648416,0.003 -2.472463,0.005 -0.58659,0.001 -1.173052,9.1e-4 -1.759679,5.3e-4 -0.08389,3e-5 -0.16786,3e-5 -0.251754,0 -1.399252,0.0101 -2.775863,0.0543 -4.17568,0.0568 -1.328603,3.3e-4 -2.633496,0.0632 -3.94931,0.0951 -1.359174,0.0228 -2.688007,0.0888 -4.011472,0.15374 -0.914823,0.0634 -1.879908,0.11874 -2.736647,0.21286 -0.464387,0.051 -0.53726,0.0685 -0.945887,0.13447 -0.4968048,0.0634 -0.8127392,0.16262 -1.172257,0.25345 -0.3747499,0.0946 -0.7538648,0.18546 -1.106988,0.28394 -0.5698581,0.16187 -1.2751285,0.30917 -1.7166859,0.48889 -0.2443126,0.0995 -0.3424093,0.17354 -0.5045419,0.27654 -0.3540826,0.28669 -0.2589738,0.58527 -0.2336226,0.87812 0.074016,0.23037 -0.1248645,0.45723 -0.3082161,0.68305 -0.1329755,0.2671 -0.4495593,0.5273 -0.6993138,0.79011 -0.1893612,0.32125 -0.3906763,0.64284 -0.4827855,0.96604 -0.038527,0.24203 -0.2107039,0.48138 -0.2595232,0.72333 -0.054849,0.36597 0.097176,0.7323 0.2688474,1.09634 0.1731576,0.22072 0.1881958,0.44533 0.3325626,0.6664 0.125737,0.11798 0.1691836,0.23823 0.1761234,0.35869 -0.04055,0.27837 0.018685,0.55579 0.101012,0.8336 0.1020577,0.30338 0.1533513,0.60706 0.153849,0.9111 -0.061703,0.33073 0.037536,0.65996 0.1605832,0.98948 0.082656,0.41077 0.2611101,0.82027 0.4273584,1.22993 0.1582978,0.40139 0.2483302,0.80536 0.4931458,1.20512 0.1539613,0.26167 0.3519348,0.52167 0.6039999,0.78017 0.3060203,0.32358 0.6341065,0.64768 1.1282263,0.96157 0.3653744,0.24305 0.973207,0.4645 1.5436704,0.68875 0.6514335,0.24077 1.4106356,0.46969 2.1834126,0.69493 0.787048,0.22097 1.793595,0.40247 2.709711,0.59991 0.526167,0.10782 0.980248,0.22757 1.541081,0.32806 0.944623,0.16643 2.06569,0.26939 3.240672,0.34725 1.677369,0.11416 3.446828,0.0977 5.187872,0.0954 1.08674,-0.005 2.173801,-0.008 3.260875,-0.008 0.100742,-0.001 1.738815,-0.002 2.947478,0.0152 1.216558,0.0256 2.437301,0.0378 3.659742,0.0406 0.87358,-0.0178 1.76262,0.0101 2.638226,-0.003 0.699253,-0.0101 1.400075,-0.0322 2.098977,-0.0449 0.197037,-0.002 0.393917,-0.005 0.59105,-0.008 0.376466,-0.005 0.577484,-0.005 0.947441,-0.005 0.158981,-5e-5 0.634232,-0.005 0.477087,8.3e-4 -0.05919,0.002 -0.119302,10e-4 -0.179231,10e-4 0.05295,-1.3e-4 0.06666,0 0.09997,0 1.24555,0.002 2.491333,0.003 3.736926,0.003 1.136465,2e-4 2.272562,-1.3e-4 3.409025,-1.3e-4 0.237159,5e-5 1.619222,-5e-5 0.222746,0 -0.144981,3e-5 0.289632,0 0.43461,0 0.174815,0 0.777911,0 0.945887,0 1.340048,3e-5 2.680226,3e-5 4.020277,0 0.564025,-0.005 1.135417,0.008 1.698556,0 0.458471,-0.008 0.912994,-0.0228 1.370137,-0.033 0.900988,-0.0203 1.806179,-0.0228 2.711265,-0.0228 0.03691,5e-5 0.04868,7e-5 0.07304,1.2e-4 0.155865,2.1e-4 0.311895,6.1e-4 0.467763,8.2e-4 0.663955,0.001 1.327775,0.001 1.991749,0.002 0.07874,3e-5 0.157476,-2e-5 0.236213,0 -0.968146,-0.18165 -1.86837,-0.37761 -2.638744,-0.59704 -0.217208,-0.0649 -0.425616,-0.1299 -0.627311,-0.19484 -0.06631,-1.1e-4 -0.132612,-1.1e-4 -0.198915,-2.1e-4 -1.110458,0.003 -2.219332,0.0178 -3.323555,0.0419 -0.736154,0.0127 -1.472784,0.0152 -2.210867,0.0127 -0.166129,-3e-5 -0.332197,0 -0.498326,0 -0.694137,0 -1.388265,0 -2.0824,0 -1.194249,-3e-5 -2.388829,-10e-5 -3.583078,0 -0.374957,2e-5 -0.749645,1.5e-4 -1.124599,2e-4 -0.157106,0 -0.261786,0 -0.471391,0 -1.182615,-2e-5 -2.365282,3e-5 -3.547851,-0.002 -1.412068,-0.003 -2.825695,-0.003 -4.231625,0.0276 -0.608052,0.0127 -1.212707,0.0256 -1.823915,0.0279 -0.207355,7.6e-4 -0.414746,6.9e-4 -0.62213,9.7e-4 -0.174867,2.5e-4 -0.354163,-0.008 -0.525263,3e-4 -0.960698,8.1e-4 -1.922253,-0.002 -2.878064,-0.0228 -0.353896,-0.008 -1.385277,-0.0284 -1.707361,-0.0317 -1.164752,-0.0101 -2.336846,0.0101 -3.50175,-2e-4 -1.096503,0.001 -2.192988,0.005 -3.289366,0.0102 0.109835,2.8e-4 0.439093,-5.6e-4 0.329455,8.4e-4 -0.851021,0.0101 -1.729316,0.0101 -2.567775,-0.0228 -0.301782,-0.0178 -0.612288,-0.0307 -0.912735,-0.05 -0.144121,-0.0101 -0.278921,-0.0228 -0.421661,-0.0337 -0.08427,-0.005 -0.180852,-0.005 -0.257969,-0.0152 -0.158215,-0.0178 -0.278738,-0.0492 -0.436163,-0.0683 -0.03368,-0.005 -0.0785,7.6e-4 -0.117589,10e-4 -0.08226,-0.0152 -0.161905,-0.0309 -0.246573,-0.0454 -0.05421,-0.0101 -0.137223,-0.0101 -0.186484,-0.0203 -0.314483,-0.0667 -0.535007,-0.15248 -0.904445,-0.20905 -0.807898,-0.18242 -1.716534,-0.34461 -2.494738,-0.53248 -0.347576,-0.0931 -0.630766,-0.19256 -0.953656,-0.28925 -0.341782,-0.10224 -0.730309,-0.19865 -0.998716,-0.31094 -0.484544,-0.1956 -1.055788,-0.38304 -1.381015,-0.59344 -0.501241,-0.28247 -0.727677,-0.5837 -1.034984,-0.87675 -0.2433632,-0.24305 -0.4294496,-0.4878 -0.5729192,-0.73415 C 9.232007,117.88941 9.2005875,117.49447 9.0226984,117.10498 8.857282,116.69677 8.6774775,116.28884 8.596894,115.87949 8.4800814,115.56718 8.3805462,115.2555 8.444081,114.942 c -9.283e-4,-0.31782 -0.052557,-0.63535 -0.1590292,-0.95246 -0.07978,-0.26712 -0.1355598,-0.53359 -0.095832,-0.80127 -0.011347,-0.15502 -0.058013,-0.31051 -0.2144562,-0.46261 -0.081673,-0.0464 -0.021751,-0.008 -0.048693,-0.10326 -0.048231,-0.17302 -0.1701946,-0.34471 -0.2590052,-0.5169 -0.1629189,-0.33258 -0.3012232,-0.66769 -0.257451,-1.00208 0.045125,-0.23772 0.2310395,-0.47311 0.256933,-0.71113 0.082397,-0.29242 0.2710957,-0.58322 0.4351286,-0.87399 0.2588728,-0.2689 0.569909,-0.53587 0.7133001,-0.80901 0.2189211,-0.26695 0.4172071,-0.53613 0.3460308,-0.80795 -0.018854,-0.21692 -0.1065332,-0.43904 0.095832,-0.65301 0.038488,-0.0228 0.1509637,-0.0984 0.2237804,-0.12584 0.4224429,-0.15806 1.0822917,-0.28613 1.5721617,-0.43472 0.501257,-0.13421 0.986763,-0.27943 1.667992,-0.37756 0.797306,-0.0926 1.717542,-0.13878 2.590569,-0.19003 1.223259,-0.0571 2.457148,-0.10148 3.706363,-0.12736 1.208795,-0.0355 2.417409,-0.0771 3.643166,-0.0743 0.546355,-0.005 1.089505,-0.0152 1.633805,-0.0261 0.19229,-0.005 0.384305,-0.0101 0.576545,-0.0127 0.171029,-0.003 0.671008,0.003 0.513348,-0.0101 -0.003,-2.5e-4 -0.0063,-1.5e-4 -0.0093,-4.3e-4 1.135518,3.3e-4 2.271037,5.3e-4 3.406436,-0.003 0.828053,-0.002 1.082906,-0.003 1.352524,-0.003 0.26962,-6e-5 0.554029,10e-4 1.44214,0.003 2.583978,0.0178 5.159808,0.0637 7.737519,0.10199 0.511275,0.0101 1.022554,0.0203 1.533829,0.0297 0.480165,0.008 0.961146,0.0127 1.440586,0.0203 1.663313,0.0312 3.322239,0.0756 4.992583,0.0896 1.125004,0.0178 2.251683,0.0259 3.37639,0.0449 0.904088,0.0152 1.804871,0.0378 2.709193,0.0523 0.486808,0.008 0.974476,0.0127 1.461825,0.0178 2.474205,0.0365 4.954075,0.0591 7.435002,0.0581 0.504678,-0.11443 1.015757,-0.22783 1.53849,-0.33888 0.716579,-0.14715 1.38831,-0.30381 2.136792,-0.44436 -1.140826,-0.008 -2.283044,-0.008 -3.424566,-0.005 -2.163282,0.0102 -4.322967,-0.0177 -6.481862,-0.0451 -2.510266,-0.0363 -5.016063,-0.0809 -7.527207,-0.11493 -2.640626,-0.0345 -5.273562,-0.0888 -7.908979,-0.13675 -2.63197,-0.0439 -5.265625,-0.088 -7.903801,-0.1129 -0.823724,-0.008 -1.647782,-0.0101 -2.471945,-0.0101 z m 47.581312,0.62632 c -0.554054,0.1 -1.236721,0.19485 -2.063753,0.27982 -0.671709,0.069 -1.289519,0.15805 -1.911458,0.24381 -0.375113,0.053 -0.74154,0.10858 -1.102325,0.16592 0.424388,0.0101 0.848776,0.0178 1.272233,0.0287 3.763457,0.0746 -1.101489,-0.0228 2.630456,0.0578 1.290318,0.0282 2.592899,0.0325 3.869535,0.0845 1.629325,0.0355 3.252325,0.0809 4.880176,0.11848 1.530697,0.0365 3.084327,0.0254 4.613398,0.0715 1.647939,0.0127 3.291705,0.0441 4.922134,0.0936 2.231787,0.0485 4.394371,0.16871 6.602042,0.24711 1.37584,0.0535 2.74522,0.11924 4.02545,0.23822 0.98103,0.12102 2.09115,0.1984 2.99462,0.34852 1.32138,0.1885 -0.0883,-0.0178 1.3546,0.20854 0.94896,0.14817 1.97607,0.27578 2.85993,0.4415 1.11006,0.19992 2.20709,0.40405 3.07957,0.6506 0.5661,0.1743 1.12768,0.35062 1.57475,0.53821 0.2729,0.15958 0.43799,0.31972 0.3652,0.48962 -0.0111,0.23265 -0.0357,0.46558 0.0316,0.698 0.10723,0.31867 0.33075,0.63515 0.37607,0.95479 0.14066,0.44264 0.11713,0.8854 0.0973,1.32885 -0.006,0.32409 -0.054,0.64946 0.0855,0.97261 0.16138,0.30378 0.23675,0.60752 0.31185,0.9127 0.13489,0.30767 0.23554,0.61559 0.36415,0.92341 0.0928,0.38913 0.37036,0.76941 0.60763,1.15529 0.10155,0.33256 0.22518,0.66438 0.17043,0.99795 0.006,0.30652 0.0259,0.61305 0.0249,0.91958 -0.014,0.36462 -0.0203,0.73138 -0.32065,1.09189 -0.16108,0.23874 -0.47087,0.47207 -0.66409,0.70976 -0.27729,0.25295 -0.51691,0.50904 -1.0754,0.74432 -0.0757,0.0368 -0.12258,0.0771 -0.23828,0.10935 -0.36148,0.10021 -0.86053,0.17633 -1.34837,0.24863 -0.89757,0.12279 -1.82409,0.24026 -2.79002,0.33887 -0.19892,0.0178 -0.51159,0.0502 -0.74385,0.0637 -0.5838,0.0343 -1.21571,0.0261 -1.81356,0.035 -1.24043,0.005 -2.48146,0.0152 -3.71517,0.0424 -0.59963,-0.0652 -1.09681,-0.10934 -1.14894,-0.0911 -0.0455,0.0152 -0.0905,0.0322 -0.13624,0.0485 -0.006,0.001 -0.0113,0.002 -0.0197,0.003 -0.73779,0.11772 -0.83215,0.15197 -1.23131,0.32063 -0.005,0.002 0.006,-0.005 0.009,-0.008 -0.12398,0.0736 -0.0822,0.0459 -0.13676,0.12508 -0.009,0.005 -0.0153,0.008 -0.0234,0.0127 -0.23861,0.12761 -0.56111,0.2466 -0.90962,0.36313 -0.70161,0.21692 -1.48245,0.42029 -2.23367,0.62992 -1.22385,0.39695 -2.325089,0.81104 -3.230302,1.24257 -0.466095,0.24102 -0.897063,0.48498 -1.36133,0.72618 -0.747246,-0.22098 -1.523075,-0.43797 -2.109338,-0.67995 -0.660165,-0.27061 -1.144296,-0.55785 -1.843599,-0.82406 -0.783097,-0.2855 -1.549188,-0.57294 -2.338816,-0.85768 -0.267453,-0.10097 -0.531584,-0.20245 -0.793073,-0.30419 0.389451,-0.0325 0.656021,-0.0609 0.633526,-0.0756 -0.135356,-0.0203 -0.01294,1.8e-4 -0.120179,-0.0797 -0.126142,-0.0939 -0.296397,-0.18596 -0.459992,-0.27714 -0.238305,-0.0946 -0.578587,-0.21971 -1.076426,-0.27007 -0.03737,-0.003 0.04207,0.0152 0.0632,0.0228 -0.0258,-0.003 -0.05137,-0.008 -0.07718,-0.0102 -0.419969,-0.0728 -0.53371,-0.0951 -1.018409,-0.13801 -0.0084,-7.4e-4 0.09032,0.0698 -0.147633,0.005 -0.29574,-0.0302 -0.777549,-0.0654 -1.095074,-0.084 -0.07537,-0.005 -0.159656,0.0101 -0.234659,-1.3e-4 -0.227766,-0.0152 -0.445085,-0.0381 -0.676002,-0.052 -0.147682,-0.008 -0.298228,0.0434 -0.447562,-0.008 -0.164757,-0.0127 -0.323943,-0.0302 -0.494182,-0.0403 -0.07323,-0.005 -0.04254,0.0178 -0.04041,0.0203 0.005,0.005 0.04243,0.0127 0.0202,0.0127 -0.181832,0.008 -0.316079,-0.0956 -0.489001,-0.0535 -0.298841,-0.0101 -0.526827,-0.0449 -0.815348,-0.0639 -0.05056,-0.003 -0.107337,0.002 -0.159548,2e-4 -0.177886,-0.008 -0.503631,-0.0403 -0.631454,-0.0523 -0.205634,-0.0127 -0.399992,-0.0355 -0.613324,-0.0388 -0.922889,-0.0152 -1.530065,-0.0178 -2.297893,0.0264 -0.937193,0.001 -1.853774,0.005 -2.771874,0.0472 -0.692275,0.0228 -1.41174,0.0152 -2.101567,0.05 -0.698318,0.0203 -1.41422,0.0178 -2.099494,0.0591 -0.610959,0.0261 -1.243468,0.0535 -1.86691,0.054 h -1.227684 c -0.151233,0 -0.302516,0 -0.453777,0 0.660221,0.11467 1.289526,0.2367 1.899025,0.36272 0.617222,0.11899 1.139434,0.2532 1.626034,0.39337 0.554078,-0.0228 1.106756,-0.0444 1.659705,-0.0677 0.336675,-0.0264 0.704652,-0.003 1.044827,-0.0102 0.313126,-0.008 0.618834,-0.0254 0.928792,-0.037 0.399614,-0.0228 0.831656,-6.1e-4 1.232347,-0.0127 0.301282,-0.0101 0.594816,-0.0276 0.894604,-0.0388 0.09212,-0.005 0.254077,-0.008 0.424767,-0.0101 0.720342,0.002 1.44792,8.4e-4 2.148189,-0.035 0.411344,0.0254 0.822994,0.052 1.223022,0.0842 -0.01438,-0.003 -0.06486,-0.0127 -0.043,-0.0101 0.340269,0.0203 0.868368,0.10478 1.245814,0.0944 0.06387,-0.002 -0.112191,-0.0127 -0.168352,-0.0203 0.335557,0.0127 0.653285,0.0589 1.002868,0.0606 0.03401,1.7e-4 -0.05281,-0.008 -0.07925,-0.0127 0.06003,0.003 0.119713,0.008 0.17975,0.0102 0.09882,0.008 0.197128,0.0152 0.296819,0.0203 0.106171,0.005 0.212405,0.0127 0.318577,0.0178 0.0031,-2e-4 0.0063,-4e-4 0.0093,-8.1e-4 0.650046,0.26639 1.319859,0.53093 2.009361,0.79311 0.787676,0.28861 1.573499,0.57735 2.357983,0.86635 0.672636,0.25426 1.162675,0.52707 1.769005,0.78834 0.725568,0.30721 1.690803,0.58418 2.632009,0.86411 0.416437,0.14588 0.834181,0.29202 1.434889,0.40992 1.231029,0.26669 1.524195,0.28201 3.787173,0.0835 0.350717,-0.0307 0.878874,-0.30518 1.012192,-0.36662 0.759044,-0.35628 1.375544,-0.724 2.078244,-1.0849 0.85979,-0.38677 1.83402,-0.76535 2.97857,-1.1202 0.80788,-0.19916 1.53747,-0.40877 2.2233,-0.6261 0.3751,-0.12152 0.67465,-0.24939 0.94846,-0.38043 1.2838,-0.0266 2.57507,-0.0307 3.86438,-0.0307 0.95704,-0.0127 1.89591,-0.036 2.78067,-0.11671 1.77182,-0.1611 -0.28667,0.0101 0.9749,-0.0931 1.13116,-0.14004 2.2998,-0.27052 3.3567,-0.43322 0.70809,-0.11163 1.43813,-0.23696 1.92286,-0.39368 0.3058,-0.0989 0.43435,-0.17658 0.64647,-0.28331 0.63303,-0.27045 0.89297,-0.56563 1.21836,-0.85524 0.21763,-0.25675 0.53179,-0.50941 0.70708,-0.76753 0.31906,-0.38984 0.33158,-0.78636 0.34708,-1.18054 0.002,-0.30929 -0.0187,-0.61848 -0.0249,-0.92775 0.0525,-0.34681 -0.0703,-0.69213 -0.17613,-1.03793 -0.20397,-0.38266 -0.51435,-0.76068 -0.60504,-1.14563 -0.12922,-0.31718 -0.23305,-0.63464 -0.37244,-0.95162 -0.0748,-0.30931 -0.15376,-0.61724 -0.31703,-0.92521 -0.12153,-0.2978 -0.074,-0.59768 -0.0688,-0.89626 0.0229,-0.45893 0.0398,-0.91717 -0.10309,-1.37531 -0.0434,-0.32063 -0.26919,-0.63814 -0.37659,-0.95776 -0.0602,-0.21463 -0.0362,-0.42957 -0.0259,-0.64433 0.0889,-0.24128 -0.1614,-0.47489 -0.49626,-0.70434 -0.46839,-0.25449 -1.18512,-0.48744 -1.9125,-0.7139 -0.99456,-0.30048 -2.25564,-0.55523 -3.56753,-0.79681 -1.41518,-0.25142 -2.94519,-0.47379 -4.45023,-0.70169 -1.03551,-0.15299 -2.12864,-0.28938 -3.28367,-0.40101 -1.51324,-0.17379 -3.19316,-0.26492 -4.87032,-0.34501 -2.29017,-0.0875 -4.5544,-0.20043 -6.861046,-0.269 -1.713459,-0.0497 -3.434268,-0.088 -5.161455,-0.11037 -1.495507,-0.0264 -2.991503,-0.0467 -4.490112,-0.0634 -1.604044,-0.0325 -3.204286,-0.0733 -4.804545,-0.11315 -1.344971,-0.0386 -2.695446,-0.0672 -4.046696,-0.0946 z m -8.022425,2.95747 c -0.358586,10e-4 -0.717109,0.005 -1.075389,0.0101 0.530066,0.17049 1.053918,0.34192 1.551959,0.51647 0.255135,0.0984 0.513465,0.19637 0.768727,0.29465 0.187251,0.0101 0.374836,0.0178 0.560488,0.0292 1.170437,0.0665 2.313887,0.14968 3.487762,0.21413 0.738621,0.0406 2.427552,0.12279 3.114796,0.15678 2.617913,0.1228 5.216555,0.26282 7.862359,0.35859 1.340412,0.0325 2.41425,0.18444 3.476885,0.34238 1.218171,0.2055 2.515669,0.38928 3.774222,0.5838 1.25821,0.20981 2.554602,0.41848 3.546816,0.68355 0.729759,0.24001 1.219882,0.50891 1.695447,0.77347 0.609039,0.35663 0.844258,0.73443 1.126155,1.1062 0.301559,0.3439 0.695376,0.68219 0.926726,1.0285 0.23265,0.49698 0.56608,0.99175 0.79099,1.48886 0.21687,0.3509 -0.10941,0.69267 -0.6874,1.02233 -0.55993,0.28618 -1.612313,0.51522 -2.494214,0.76076 -1.038394,0.2566 -2.186663,0.49143 -3.369656,0.71971 -0.838445,0.18216 -1.891713,0.2947 -3.083197,0.34184 -0.968626,0.034 -1.894436,0.10554 -2.868741,0.1337 -0.540499,0.0152 -1.085258,0.0254 -1.626552,0.0388 -2.033179,0.0538 -3.951898,0.20449 -5.882006,0.33834 -1.276194,0.10072 -2.593725,0.18064 -3.939985,0.23138 -0.637235,0.0228 -1.282523,0.0383 -1.923372,0.0578 -2.071631,0.0502 -4.150923,0.0809 -6.23011,0.11443 -1.022236,0.0259 -2.044592,0.0507 -3.068692,0.072 -0.219758,0.0959 -0.439091,0.1918 -0.659945,0.28755 -0.395625,0.18089 -0.83831,0.35787 -1.235973,0.53874 2.07733,-0.0297 4.142682,-0.0817 6.214051,-0.12533 2.156329,-0.037 4.317569,-0.0665 6.459587,-0.13167 2.176758,-0.0718 4.318361,-0.1743 6.37567,-0.34027 1.734802,-0.11899 3.468414,-0.24457 5.301835,-0.28202 1.677578,-0.0467 3.323749,-0.12051 4.953215,-0.21489 0.291886,-0.0203 0.588829,-0.0391 0.875436,-0.0627 1.304521,-0.10834 2.438575,-0.28258 3.42871,-0.48509 1.311259,-0.25657 2.575879,-0.52377 3.698079,-0.81609 1.10541,-0.30046 2.30177,-0.59458 2.90447,-0.95616 0.69667,-0.43779 1.08135,-0.84428 0.82572,-1.3065 -0.22833,-0.50703 -0.56851,-1.01165 -0.80551,-1.51855 -0.23382,-0.35062 -0.60554,-0.69371 -0.93397,-1.04088 -0.31521,-0.41562 -0.58726,-0.83707 -1.26188,-1.2361 -0.5745,-0.32718 -1.19853,-0.65613 -2.08292,-0.95372 -0.19329,-0.0546 -0.372158,-0.11138 -0.579646,-0.1639 -1.012053,-0.25568 -2.328421,-0.45644 -3.532312,-0.67105 -1.261448,-0.20118 -2.602288,-0.38012 -3.818772,-0.59313 -1.448457,-0.22174 -2.92707,-0.44723 -4.748599,-0.5172 -0.550638,-0.0203 -1.104697,-0.0353 -1.654006,-0.0566 -2.023425,-0.0784 -4.002463,-0.20043 -6.019797,-0.28468 -1.417519,-0.0698 -2.856773,-0.13015 -4.257527,-0.21337 -0.329947,-0.0203 -1.934218,-0.12888 -2.269402,-0.14994 -0.319671,-0.0203 -0.643379,-0.037 -0.965053,-0.0553 -0.318383,-0.0178 -0.627679,-0.0439 -0.954693,-0.0523 -0.562707,-0.0152 -1.126863,-0.0178 -1.690786,-0.0178 z m -9.625665,0.18165 c -0.894494,0.0203 -1.789486,0.0403 -2.684329,0.0604 -1.579383,0.0485 -3.138651,0.11924 -4.707677,0.17962 -1.362403,0.0639 -2.723223,0.13345 -3.945684,0.27821 -0.262236,0.033 -0.530955,0.0637 -0.78634,0.0987 -1.333209,0.18317 -2.461477,0.42064 -3.762826,0.61254 -1.923361,0.27108 -3.995501,0.48975 -6.118219,0.68823 -0.688342,0.069 -1.68063,0.1644 -2.338298,0.2466 -1.072912,0.13395 -1.981083,0.30962 -2.862525,0.49102 -1.325766,0.26042 -2.711775,0.51017 -3.795979,0.81682 -0.672969,0.1913 -1.306538,0.38749 -1.899025,0.5889 -0.309186,-0.0485 -0.53913,-0.0771 -0.587942,-0.0665 -0.705715,0.14284 -1.270978,0.30318 -1.54108,0.50203 -0.3273,0.19256 -0.577993,0.38982 -0.744899,0.59091 -0.09288,0.0972 -0.177688,0.17581 -0.227924,0.2762 -0.119762,0.23925 -0.01926,0.47943 0.06475,0.71814 0.08682,0.22022 0.07943,0.44371 0.444972,0.65494 0.224044,0.17277 0.562616,0.33537 0.941742,0.49632 0.480536,0.25774 0.965454,0.51487 1.376353,0.77784 0.173464,0.10503 0.428404,0.26418 0.630419,0.36409 0.449128,0.22224 1.002668,0.43601 1.443694,0.65907 0.417434,0.16694 0.880077,0.3252 1.34061,0.48711 0.322796,0.11341 0.748655,0.26984 1.117867,0.37683 0.168352,0.0487 0.365987,0.0931 0.549091,0.13954 0.960368,0.21083 2.057381,0.39583 3.215808,0.55929 1.258772,0.18952 2.436239,0.40547 3.85296,0.54625 0.449848,0.0482 1.453161,0.15705 1.886075,0.19586 1.414618,0.1266 2.925723,0.20677 4.424325,0.27824 1.706054,0.0982 3.445424,0.16897 5.17285,0.24939 1.93163,0.0819 3.889713,0.14208 5.858696,0.17024 0.0084,-0.0421 0.02239,-0.0847 0.04869,-0.12838 0.108897,-0.0896 0.193553,-0.18038 0.326864,-0.26847 0.198115,-0.13091 0.490537,-0.2551 0.795664,-0.37822 -1.822517,-0.0228 -3.634521,-0.0733 -5.430301,-0.14081 -1.664931,-0.07 -3.322932,-0.14613 -4.97239,-0.22985 -1.395257,-0.072 -2.805866,-0.13853 -4.148225,-0.24686 -0.561506,-0.0452 -1.021513,-0.0951 -1.560765,-0.15019 -1.262911,-0.11873 -2.329915,-0.30059 -3.429746,-0.47055 -0.99899,-0.14512 -1.986382,-0.29678 -2.856309,-0.47397 -0.134825,-0.0325 -0.280251,-0.0632 -0.404566,-0.0972 -0.27194,-0.0746 -0.639793,-0.20651 -0.856788,-0.28181 -0.433742,-0.1507 -0.870441,-0.30016 -1.269125,-0.45487 -0.679706,-0.30546 -1.374702,-0.60864 -1.907314,-0.92627 -0.433399,-0.27055 -0.912269,-0.53745 -1.413649,-0.80295 -0.269088,-0.1436 -0.652519,-0.27791 -0.849538,-0.42666 -0.306007,-0.1715 -0.292652,-0.35133 -0.358463,-0.53067 -0.06583,-0.20753 -0.179212,-0.41664 -0.06113,-0.62452 0.01026,-0.0178 0.165779,-0.16998 0.178196,-0.18216 0.07856,-0.0918 0.172767,-0.18292 0.289567,-0.27281 0.403272,0.0261 0.699562,0.0391 0.728323,0.0254 v -1.3e-4 c 0.931197,-0.38266 2.013439,-0.74713 3.262428,-1.08953 1.01303,-0.26911 2.291194,-0.48557 3.473777,-0.72121 0.545756,-0.10605 1.066,-0.22478 1.695965,-0.31122 0.398728,-0.0548 1.201533,-0.12634 1.602724,-0.16541 0.379651,-0.0368 0.758486,-0.0741 1.13755,-0.11113 2.298622,-0.20956 4.491938,-0.45943 6.534699,-0.75979 1.440277,-0.21768 2.648813,-0.50551 4.285499,-0.66364 0.973053,-0.0853 2.017246,-0.1332 3.059887,-0.1677 1.499644,-0.0556 2.976683,-0.12964 4.494256,-0.16186 1.192281,-0.0178 2.379245,-0.0495 3.5665,-0.0794 -0.334481,-0.10783 -0.672996,-0.21514 -1.008566,-0.32277 -0.434754,-0.13877 -0.86645,-0.27813 -1.271196,-0.42061 z m 21.264319,13.68939 c 0.03617,8.7e-4 0.144658,0.002 0.108265,0.003 -0.1363,0.001 -0.17251,7.6e-4 -0.28646,0.002 0.0113,-5.1e-4 0.02227,-10e-4 0.03368,-0.002 0.04749,-0.002 0.09643,-0.002 0.144524,-0.002 z m -1.309011,0.005 c -0.0085,-4.8e-4 0.02708,-5.9e-4 0.103601,2e-4 0.01612,1.8e-4 0.04019,0.001 0.05802,0.002 -0.100319,-4.8e-4 -0.153062,-10e-4 -0.161618,-0.002 z m 17.941283,3.47839 c 0.0088,2e-4 0.01706,2e-4 0.0259,6.1e-4 0.0081,2e-4 0.726288,0.16795 0.259004,0.0642 -0.06102,-0.0127 -0.119872,-0.0274 -0.179749,-0.0411 -0.03497,-0.008 -0.07018,-0.0152 -0.105156,-0.0228 z" /><path
       id="path1136"
       style="fill:#00a8f3;fill-opacity:1;stroke:#000000;stroke-width:0.230259;stroke-opacity:0"
       d="m 31.132406,105.90985 c -1.245389,-0.002 -2.454239,0.003 -3.971065,0.0101 -6.218193,0.0302 -9.820943,0.11392 -12.785011,0.29659 -1.590725,0.0979 -1.80791,0.13015 -3.076463,0.45613 -1.8894195,0.48531 -1.9575604,0.52091 -1.9575604,1.02487 0,0.42176 -0.4782394,1.23287 -1.010638,1.71364 -0.1323029,0.1195 -0.3804086,0.60009 -0.5511628,1.06803 -0.2684753,0.73574 -0.2516785,0.98589 0.1232865,1.84968 0.238483,0.54937 0.5455563,1.69051 0.6827376,2.53588 0.1371808,0.84539 0.4203425,1.95911 0.6293824,2.47494 0.9487507,2.34114 2.2010887,3.05062 7.2925467,4.13226 1.676565,0.35618 2.394569,0.47116 3.28056,0.52548 1.562942,0.0959 22.717569,0.0822 38.48557,0.0152 -1.060956,-0.34215 -1.850941,-0.68982 -1.806819,-1.10483 -1.397711,-0.0228 -2.736908,-0.0553 -4.090727,-0.10225 -3.757495,-0.13015 -10.145201,-0.48571 -12.106419,-0.67368 -2.060862,-0.19764 -5.702763,-0.72545 -7.719389,-1.11894 -1.331184,-0.25975 -3.706578,-1.10494 -4.958392,-1.76432 -3.355183,-1.76733 -3.471912,-1.85437 -3.510038,-2.62158 -0.044,-0.88527 1.225075,-1.71456 2.742864,-1.79262 0.302206,-0.0152 1.007565,-0.16897 1.5675,-0.34088 1.107646,-0.34014 5.453879,-1.2482 7.010232,-1.46469 0.53311,-0.0741 1.834469,-0.21565 2.892052,-0.31416 2.817848,-0.26284 5.077307,-0.54488 7.481103,-0.93391 2.43803,-0.39454 3.946887,-0.56505 5.94313,-0.67148 1.782374,-0.0949 5.029744,-0.2017 8.377263,-0.28829 -0.386274,-0.13725 -0.748152,-0.27717 -1.059331,-0.42262 -1.022948,-0.52821 -1.288946,-0.91022 0.464137,-1.39832 0.68295,-0.19053 1.352231,-0.38352 2.097939,-0.56419 0.178145,-0.0419 0.361898,-0.0827 0.542877,-0.12406 -3.802793,-0.0261 -7.928148,-0.0649 -9.529317,-0.0928 -13.681576,-0.23696 -17.744682,-0.30359 -21.480848,-0.3097 z m 41.396788,0.5137 c -0.378789,0.0611 -0.751473,0.12381 -1.116311,0.18825 -0.769901,0.13446 -1.427397,0.29201 -2.133686,0.43959 -0.641268,0.137 -1.270769,0.27606 -1.87934,0.41915 -0.431255,0.10807 -0.835982,0.22047 -1.238044,0.33324 0.491701,0.21311 1.117175,0.41085 1.737406,0.60871 0.262123,0.0832 0.521353,0.16694 0.781159,0.25041 0.317233,-0.002 0.671898,-0.005 0.945887,-0.008 1.694544,-0.002 2.683795,0.0287 4.245612,0.13091 2.243855,0.14689 10.513359,0.56261 13.093743,0.65823 2.185948,0.0809 3.39156,0.21515 7.016449,0.78027 5.6023,0.87346 6.957131,1.21893 8.486561,2.16405 0.72875,0.45035 2.23513,2.25021 2.74493,3.27969 0.48002,0.96933 0.35756,1.30582 -0.68325,1.87524 -1.09407,0.59851 -6.461901,1.861 -9.057408,2.1302 -1.476975,0.15324 -3.322649,0.25627 -6.709267,0.37472 -1.330051,0.0464 -3.620952,0.16643 -5.091005,0.26624 -4.112583,0.27951 -5.26976,0.325 -11.837051,0.46568 -2.896733,0.0622 -5.33697,0.10325 -7.52876,0.12786 -0.04756,0.0228 -0.09749,0.0431 -0.14349,0.065 -0.214581,0.10174 -0.304111,0.10935 -0.09791,0.0819 0.142167,-0.005 0.02005,-0.0584 0.129502,-0.0647 0.05343,-0.003 0.07485,0.0178 0.104639,0.0266 0.309773,0.1 0.602744,0.19916 0.936045,0.29636 0.801129,0.2159 1.798818,0.39578 2.836623,0.56228 0.160372,0.0254 0.315566,0.0512 0.471908,0.0771 2.972663,-0.0228 5.429723,-0.0485 6.346143,-0.0764 1.540057,-0.0467 3.830956,-0.0896 5.091006,-0.0951 1.998226,-0.008 2.651745,0.0127 5.114314,0.17379 1.552846,0.10123 3.176618,0.23519 3.607942,0.29815 0.901214,0.13142 1.724633,0.51566 1.464413,0.68349 -0.126929,0.0819 0.263331,0.27483 1.460272,0.72151 0.898694,0.33537 2.002157,0.77392 2.451742,0.9745 0.449584,0.20068 1.176171,0.48658 1.614638,0.63556 0.438467,0.14892 0.876164,0.26075 0.972823,0.24863 0.09666,-0.0127 0.438817,-0.16922 0.76044,-0.34895 0.972866,-0.54361 2.367717,-1.07431 4.646551,-1.76814 1.19189,-0.36288 2.24154,-0.72923 2.3326,-0.81409 0.091,-0.085 0.43988,-0.20702 0.77547,-0.27154 0.56489,-0.10859 0.86122,-0.11797 3.99593,-0.12482 3.30617,-0.008 3.41894,-0.0127 4.79056,-0.17278 2.93926,-0.34549 3.46398,-0.4504 4.03115,-0.80591 1.27995,-0.80234 1.66027,-1.44513 1.65815,-2.80428 -0.001,-0.70207 -0.13956,-1.48752 -0.3077,-1.74543 -0.57333,-0.87942 -1.08619,-2.49864 -1.31988,-4.16832 -0.37307,-2.66537 -0.43546,-2.81587 -1.30643,-3.15543 -0.40883,-0.15932 -1.26326,-0.41148 -1.89902,-0.56025 -1.46217,-0.34212 -6.63771,-1.14264 -8.77768,-1.3576 -2.7523,-0.27646 -10.646094,-0.58406 -16.902167,-0.65875 -1.540058,-0.0178 -4.17449,-0.0672 -5.854552,-0.10833 -4.33788,-0.1063 -7.674548,-0.17861 -10.761662,-0.22986 z m -6.884356,1.52585 c -0.228991,0.0688 -0.207501,0.0982 0,0 z" /><path
       id="path1384"
       style="fill:#ffffff;fill-opacity:1;stroke:#000000;stroke-width:0.230259;stroke-opacity:0"
       d="m 71.19739,109.5479 c 0.376957,0.14511 0.751542,0.29021 1.133925,0.43472 0.427921,0.15958 0.936843,0.31637 1.15568,0.49536 0.07961,0.0652 0.121572,0.13192 0.182339,0.19789 0.182391,0.3357 -0.44678,0.63271 -1.210591,0.9199 -0.833689,0.30255 -1.404729,0.62978 -2.007807,0.9531 -0.638152,0.34978 -1.33812,0.69456 -2.011432,1.04153 -0.448126,0.22707 -0.907818,0.45375 -1.306942,0.68472 -0.07287,0.053 -0.159889,0.10529 -0.249679,0.15705 0.254784,0.0731 0.607775,0.18368 0.693615,0.20778 0.764084,0.22022 1.56319,0.43526 2.32224,0.65631 1.003949,0.2775 1.667095,0.59392 2.273028,0.91377 0.609122,0.31185 0.88577,0.64765 0.590533,0.98097 -0.05566,0.0629 -0.152003,0.12381 -0.227925,0.18571 -0.359454,0.21794 -0.876718,0.42176 -1.391895,0.62526 -0.562659,0.22199 -1.12771,0.44358 -1.679388,0.66671 -0.561254,0.2466 -1.143165,0.49122 -1.69182,0.73902 -0.504655,0.21159 -0.994487,0.42455 -1.483065,0.63766 0.896987,-0.0152 1.789541,-0.0294 2.874439,-0.0505 7.014627,-0.13649 9.130336,-0.21286 12.749787,-0.4588 1.878158,-0.12761 4.330983,-0.25944 5.45102,-0.29285 1.120043,-0.0335 2.953077,-0.1096 4.073114,-0.16948 2.029716,-0.10833 2.044646,-0.11036 4.591643,-0.63502 4.074721,-0.83913 5.200181,-1.26839 5.204451,-1.98516 0.003,-0.44886 -0.89224,-1.89824 -1.752947,-2.83957 -1.118974,-1.22379 -2.269432,-1.73896 -4.902968,-2.19479 -2.278335,-0.39436 -6.438793,-1.01163 -7.229869,-1.07272 -0.410839,-0.0317 -2.692642,-0.14436 -5.070802,-0.25066 -2.378164,-0.10605 -5.948819,-0.28402 -7.93488,-0.3955 -1.2008,-0.0675 -2.258325,-0.11848 -3.143804,-0.15273 z m -8.686514,0.0624 c -4.290924,0.10427 -9.038303,0.25834 -10.622318,0.36368 -0.470394,0.0312 -1.730181,0.20195 -2.799845,0.37937 -2.919958,0.48429 -4.056591,0.63076 -8.006366,1.03133 -3.444279,0.3493 -3.730601,0.39073 -6.180898,0.89403 -1.889874,0.38822 -2.958904,0.66215 -4.040998,1.0358 -0.809146,0.27941 -1.626571,0.50799 -1.816663,0.50799 -0.544666,0 -0.740325,0.24128 -0.697239,0.85968 0.03731,0.53557 0.106263,0.60735 1.047934,1.09423 0.554243,0.28656 1.154067,0.61485 1.333357,0.72948 0.608258,0.38888 2.089089,1.04049 3.317339,1.45969 1.084663,0.3702 1.537252,0.46608 3.983498,0.84443 1.517814,0.23468 3.50484,0.49599 4.415518,0.5805 2.836562,0.26324 10.479283,0.61361 14.933718,0.68462 0.109285,0.002 0.215833,0.002 0.324273,0.003 0.31708,-0.12711 0.644233,-0.25345 0.894605,-0.385 0.720465,-0.31241 1.427343,-0.62617 2.169428,-0.93645 0.595458,-0.26824 1.221958,-0.53344 1.835309,-0.79998 0.563832,-0.22757 1.13838,-0.45383 1.712541,-0.68018 0.277443,-0.10935 0.567436,-0.22605 0.824671,-0.33314 0.215644,0.0906 0.0082,-0.1715 -0.144524,-0.16745 -0.375341,-0.20093 -0.75056,-0.40247 -1.391891,-0.57552 -0.732303,-0.21388 -1.509212,-0.42123 -2.245576,-0.63457 -1.318871,-0.37259 -2.616848,-0.73092 -2.32742,-1.22199 0.198103,-0.20601 0.527775,-0.4003 0.858861,-0.59854 0.435706,-0.24813 0.916059,-0.49331 1.403808,-0.73742 0.661858,-0.34007 1.346804,-0.6781 1.972583,-1.02106 0.727483,-0.3899 1.439563,-0.7823 2.445008,-1.14692 0.03864,-0.0152 0.04726,-0.0178 0.07666,-0.0287 -0.07554,-0.0264 -0.152901,-0.0525 -0.220156,-0.0797 -0.662183,-0.25066 -1.31834,-0.50152 -1.961186,-0.75418 -0.350421,-0.12432 -0.719036,-0.24635 -1.094037,-0.3676 z m 3.623481,1.32822 c 0.0063,0.005 0.01085,0.0101 0.01761,0.0127 0.01148,0.008 0.08169,0.0266 0.06527,0.0203 -0.02567,-0.0101 -0.05495,-0.0228 -0.08288,-0.033 z m 0.518011,3.6265 c -0.05119,0.0299 -0.08876,0.0533 -0.0777,0.0538 0.04751,0.001 0.03487,-0.0178 0.05232,-0.0274 0.01209,-0.0127 0.01746,-0.0178 0.02538,-0.0261 z" /><path
       id="path-1"
       style="fill:#000000;fill-rule:nonzero;stroke:none;stroke-width:0.453513"
       d="m 58.1829,112.88028 a 1.1538543,0.23617676 0 0 0 -0.944332,0.068 c -0.490396,0.10072 -1.41479,0.28007 -2.666198,0.4431 -0.286046,0.0312 -0.54569,0.069 -0.785823,0.11087 -0.201566,0.0353 -0.384003,0.0726 -0.551163,0.1096 -0.414399,0.0627 -0.752141,0.13472 -1.037574,0.20474 -0.298549,0.0731 -0.577766,0.15374 -0.797735,0.2159 -0.616208,0.15298 -1.313055,0.31023 -1.910423,0.44754 -0.07128,0.0152 -0.134493,0.0312 -0.203059,0.0472 -0.05258,-0.0152 -0.103767,-0.033 -0.152295,-0.0497 l -9.99e-4,-4.3e-4 c -0.990118,-0.34441 -1.988412,-0.60179 -2.848539,-0.79235 -0.145737,-0.0335 -0.287502,-0.0652 -0.4113,-0.0926 -0.431596,-0.0951 -0.821448,-0.17734 -1.146356,-0.25066 -0.698905,-0.15806 -1.02983,-0.25769 -1.247886,-0.33324 a 1.1539442,0.23619516 0 0 0 -1.987088,0.24026 c 0.305295,0.10579 0.731928,0.23087 1.523985,0.40991 0.358046,0.0809 0.760844,0.16617 1.167079,0.25553 0.119232,0.0261 0.251255,0.0556 0.383845,0.0863 0.0052,0.001 0.01023,0.002 0.01554,0.003 0.760174,0.1682 1.660117,0.39935 2.562597,0.71334 0.187344,0.065 0.392078,0.12533 0.602964,0.18317 -0.07889,0.0203 -0.156841,0.0414 -0.234141,0.0622 -0.637081,0.17455 -1.194549,0.34433 -1.626034,0.47958 -0.637203,0.19966 -1.315482,0.42452 -1.83531,0.5946 -1.655861,0.54177 -2.530363,0.7909 -3.429746,1.01576 a 1.1538543,0.23617676 0 0 0 1.785581,0.29922 c 0.982833,-0.24558 1.914825,-0.51296 3.60069,-1.06454 0.531183,-0.17379 1.189978,-0.39213 1.810963,-0.58677 0.384791,-0.12051 0.862486,-0.26593 1.39552,-0.41435 0.09452,0.0279 0.183907,0.0558 0.266257,0.0845 0.0061,0.002 0.01272,0.005 0.01917,0.005 1.004983,0.32514 2.047164,0.67807 3.40799,0.98554 1.282592,0.30102 2.205329,0.49472 3.073354,0.75662 0.01017,0.003 0.02073,0.005 0.0316,0.0101 0.235809,0.0644 0.407486,0.10605 0.585869,0.14334 a 1.1538543,0.23617676 0 0 0 1.648826,-0.3304 c -0.08484,-0.0178 -0.186871,-0.0413 -0.372448,-0.0918 -0.968962,-0.2913 -2.043105,-0.51903 -3.234975,-0.79881 -0.005,-10e-4 -0.0099,-0.002 -0.01503,-0.003 -1.195664,-0.26976 -2.120171,-0.58093 -3.166078,-0.91938 -0.227565,-0.0786 -0.484925,-0.15171 -0.737647,-0.21894 0.155175,-0.0363 0.316105,-0.0736 0.490556,-0.11366 0.581385,-0.1337 1.33241,-0.30313 1.991749,-0.46738 0.01469,-0.003 0.02889,-0.008 0.04247,-0.0101 0.252557,-0.0713 0.477688,-0.13649 0.720033,-0.19586 0.232611,-0.0568 0.457801,-0.10224 0.699833,-0.13674 0.07286,-0.0102 0.139593,-0.0228 0.198915,-0.036 0.149706,-0.0343 0.28603,-0.0622 0.420106,-0.0857 0.140813,-0.0254 0.269862,-0.0424 0.39317,-0.0556 0.02993,-0.003 0.05907,-0.008 0.08754,-0.0102 1.477068,-0.19104 2.553653,-0.40027 3.107026,-0.51403 a 1.1538543,0.23617676 0 0 0 -0.691026,-0.40131 z" /><path
       id="path-1-6"
       style="fill:#000000;fill-rule:nonzero;stroke:none;stroke-width:0.453513"
       d="m 89.981476,112.77405 a 1.1538543,0.23617676 0 0 0 -0.944333,0.068 c -0.490396,0.10072 -1.41479,0.28004 -2.666198,0.44309 -0.286044,0.0312 -0.545689,0.069 -0.785822,0.11087 -0.201567,0.0353 -0.384003,0.0726 -0.551162,0.1096 -0.4144,0.0627 -0.752142,0.13472 -1.037575,0.20474 -0.298549,0.0731 -0.577767,0.15375 -0.797735,0.2159 -0.616208,0.15299 -1.313057,0.31026 -1.910422,0.44756 -0.07128,0.0152 -0.134495,0.0312 -0.203061,0.0472 -0.05258,-0.0152 -0.103765,-0.033 -0.152294,-0.0497 l -9.99e-4,-4.3e-4 c -0.990117,-0.34441 -1.988412,-0.60179 -2.848538,-0.79235 -0.145739,-0.0335 -0.287502,-0.0652 -0.4113,-0.0923 -0.431596,-0.0951 -0.82145,-0.17734 -1.146356,-0.25066 -0.698906,-0.15806 -1.02983,-0.25769 -1.247887,-0.33326 a 1.1539442,0.23619516 0 0 0 -1.987087,0.24025 c 0.305295,0.1058 0.731927,0.23088 1.523986,0.40989 0.358046,0.0809 0.760843,0.16618 1.167077,0.25553 0.119233,0.0264 0.251256,0.0556 0.383846,0.0863 0.0052,0.001 0.01023,0.002 0.01554,0.003 0.760174,0.1682 1.660117,0.39935 2.562596,0.71336 0.187345,0.0649 0.392078,0.12533 0.602964,0.18318 -0.07889,0.0203 -0.156841,0.0413 -0.23414,0.0622 -0.637081,0.17455 -1.194548,0.34432 -1.626034,0.47957 -0.637205,0.19967 -1.315482,0.42453 -1.83531,0.59461 -1.383815,0.45276 -2.220766,0.70041 -2.98374,0.90103 0.03092,0.1195 0.0012,0.23976 -0.105156,0.35999 -0.02821,0.032 -0.06659,0.0632 -0.107746,0.0944 a 1.1538543,0.23617676 0 0 0 1.552477,-0.0406 c 0.982833,-0.24584 1.914825,-0.51294 3.600688,-1.06452 0.531185,-0.17379 1.189979,-0.39215 1.810965,-0.58677 0.384792,-0.12051 0.862485,-0.26595 1.395519,-0.41437 0.09452,0.0279 0.183908,0.0558 0.266257,0.0845 0.0061,0.002 0.01272,0.005 0.01917,0.005 1.004982,0.32512 2.047163,0.67807 3.407989,0.98554 1.282594,0.30099 2.20533,0.49472 3.073355,0.75662 0.01017,0.003 0.02073,0.005 0.0316,0.0101 0.235808,0.0644 0.407486,0.10605 0.585869,0.14334 a 1.1538543,0.23617676 0 0 0 1.648827,-0.3304 c -0.08484,-0.0178 -0.186872,-0.0413 -0.37245,-0.0918 -0.968961,-0.29128 -2.043103,-0.51903 -3.234974,-0.79881 -0.005,-0.001 -0.0099,-0.002 -0.01503,-0.003 -1.195664,-0.26976 -2.120172,-0.58093 -3.166079,-0.91938 -0.227563,-0.0786 -0.484924,-0.15171 -0.737646,-0.21894 0.155175,-0.0363 0.316105,-0.0736 0.490556,-0.11366 0.581384,-0.1337 1.332408,-0.30315 1.991749,-0.46738 0.01469,-0.003 0.02889,-0.008 0.04247,-0.0101 0.252559,-0.0713 0.477691,-0.13649 0.720036,-0.19586 0.23261,-0.0568 0.457799,-0.10224 0.69983,-0.13674 0.07286,-0.0102 0.139595,-0.0228 0.198917,-0.036 0.149706,-0.0343 0.286029,-0.0622 0.420106,-0.0857 0.140813,-0.0254 0.269863,-0.0424 0.39317,-0.0556 0.02993,-0.003 0.05908,-0.008 0.08755,-0.0102 1.477067,-0.19104 2.553653,-0.40027 3.107024,-0.51403 a 1.1538543,0.23617676 0 0 0 -0.691025,-0.40134 z" /></g><g
     inkscape:groupmode="layer"
     id="layer2"
     inkscape:label="Murderer"
     transform="translate(0.10682105,-4.9288627) rotate(10, 70, 70)"><image
       width="109.348"
       height="109.348"
       preserveAspectRatio="none"
       xlink:href="https://quarky.vukky.net/assets/img/vukky.svg"
       clip-path="inset(0% round 100%)"
       id="murderer"
       x="10.412179"
       y="10.188863" /></g></svg>
