<?xml version="1.0" encoding="UTF-8" standalone="no"?>
<!-- Created with Inkscape (http://www.inkscape.org/) -->

<svg
   version="1.1"
   id="svg129"
   width="128"
   height="128"
   viewBox="0 0 128 128"
   sodipodi:docname="portal.svg"
   inkscape:export-filename="spookyvukky.svg"
   inkscape:export-xdpi="96"
   inkscape:export-ydpi="96"
   inkscape:version="1.2.2 (732a01da63, 2022-12-09)"
   xml:space="preserve"
   xmlns:inkscape="http://www.inkscape.org/namespaces/inkscape"
   xmlns:sodipodi="http://sodipodi.sourceforge.net/DTD/sodipodi-0.dtd"
   xmlns:xlink="http://www.w3.org/1999/xlink"
   xmlns="http://www.w3.org/2000/svg"
   xmlns:svg="http://www.w3.org/2000/svg"><defs
     id="defs133"><inkscape:path-effect
       effect="skeletal"
       id="path-effect18367"
       is_visible="true"
       lpeversion="1"
       pattern="M 0,18.867925 C 0,8.4528302 8.4528302,0 18.867925,0 c 10.415094,0 18.867924,8.4528302 18.867924,18.867925 0,10.415094 -8.45283,18.867924 -18.867924,18.867924 C 8.4528302,37.735849 0,29.283019 0,18.867925 Z"
       copytype="single_stretched"
       prop_scale="1"
       scale_y_rel="false"
       spacing="0"
       normal_offset="0"
       tang_offset="0"
       prop_units="false"
       vertical_pattern="false"
       hide_knot="false"
       fuse_tolerance="0" /><inkscape:path-effect
       effect="bspline"
       id="path-effect18365"
       is_visible="true"
       lpeversion="1"
       weight="33.333333"
       steps="2"
       helper_size="0"
       apply_no_weight="true"
       apply_with_weight="true"
       only_selected="false" /><inkscape:path-effect
       effect="bspline"
       id="path-effect895"
       is_visible="true"
       lpeversion="1"
       weight="33.333333"
       steps="2"
       helper_size="0"
       apply_no_weight="true"
       apply_with_weight="true"
       only_selected="false" /><inkscape:path-effect
       effect="bspline"
       id="path-effect879"
       is_visible="true"
       lpeversion="1"
       weight="33.333333"
       steps="2"
       helper_size="0"
       apply_no_weight="true"
       apply_with_weight="true"
       only_selected="false" /><inkscape:path-effect
       effect="bspline"
       id="path-effect570"
       is_visible="true"
       lpeversion="1"
       weight="33.333333"
       steps="2"
       helper_size="0"
       apply_no_weight="true"
       apply_with_weight="true"
       only_selected="false" /><inkscape:path-effect
       effect="bspline"
       id="path-effect566"
       is_visible="true"
       lpeversion="1"
       weight="33.333333"
       steps="2"
       helper_size="0"
       apply_no_weight="true"
       apply_with_weight="true"
       only_selected="false" /><inkscape:path-effect
       effect="bspline"
       id="path-effect570-3"
       is_visible="true"
       lpeversion="1"
       weight="33.333333"
       steps="2"
       helper_size="0"
       apply_no_weight="true"
       apply_with_weight="true"
       only_selected="false" /></defs><sodipodi:namedview
     id="namedview131"
     pagecolor="#505050"
     bordercolor="#eeeeee"
     borderopacity="1"
     inkscape:showpageshadow="0"
     inkscape:pageopacity="0"
     inkscape:pagecheckerboard="0"
     inkscape:deskcolor="#505050"
     showgrid="false"
     inkscape:zoom="4.665351"
     inkscape:cx="103.1005"
     inkscape:cy="60.767132"
     inkscape:window-width="1920"
     inkscape:window-height="1027"
     inkscape:window-x="-8"
     inkscape:window-y="-8"
     inkscape:window-maximized="1"
     inkscape:current-layer="layer1"
     showguides="false" /><g
     inkscape:groupmode="layer"
     id="layer1-7"
     inkscape:label="panels"
     transform="matrix(2.2455509,0,0,1.9568691,-2.7450004,-255.3355)"><rect
       style="fill:#bbbcba;fill-opacity:1;stroke-width:0.981653"
       id="rect242-2"
       width="57"
       height="57"
       x="1.2252007"
       y="130.32802"
       inkscape:label="baseplate" /><path
       id="path1159-3"
       style="font-variation-settings:normal;opacity:1;vector-effect:none;fill:#696969;fill-opacity:1;stroke-width:0.865613;stroke-linecap:butt;stroke-linejoin:miter;stroke-miterlimit:4;stroke-dasharray:none;stroke-dashoffset:0;stroke-opacity:1;-inkscape-stroke:none;stop-color:#000000;stop-opacity:1"
       inkscape:label="measureright"
       d="m 6.226804,130.32991 v 5.00195 c -1.6665839,-7e-4 -3.3334615,9.5e-4 -5,0 v 0.20508 h 5 v 4.99414 c -1.6665836,-7.2e-4 -3.333462,9.8e-4 -5,0 v 0.20508 h 5 v 4.99414 c -1.6665836,-7.2e-4 -3.333462,9.7e-4 -5,0 v 0.20508 h 5 v 4.99609 c -1.6665836,-7.2e-4 -3.333462,9.8e-4 -5,0 v 0.20508 h 5 v 4.99414 c -1.6665836,-7.1e-4 -3.333462,9.5e-4 -5,0 v 0.20117 h 5 v 5 c -1.6665836,-7e-4 -3.333462,9.5e-4 -5,0 v 0.19922 h 5 v 5 c -1.6665836,-7e-4 -3.333462,9.5e-4 -5,0 v 0.19922 h 5 v 5 c -1.6665836,-7.1e-4 -3.333462,9.5e-4 -5,0 v 0.20117 h 5 v 5 c -1.6665836,-7e-4 -3.333462,9.5e-4 -5,0 v 0.19922 h 5 v 5 c -1.6665836,-7.1e-4 -3.333462,9.5e-4 -5,0 v 0.20117 h 5 v 4.99805 h 0.1953124 v -4.99805 h 5.0039066 v 4.99805 h 0.195312 v -4.99805 h 5.003906 v 4.99805 h 0.195313 v -4.99805 h 5.005859 v 4.99805 h 0.195313 v -4.99805 h 5.003906 v 4.99805 h 0.195312 v -4.99805 h 5.003907 v 4.99805 h 0.197265 v -4.99805 h 5.003907 v 4.99805 h 0.195312 v -4.99805 h 5.003906 v 4.99805 h 0.195313 v -4.99805 h 5.005859 v 4.99805 h 0.195313 v -4.99805 h 5.003906 v 4.99805 h 0.195312 v -4.99805 h 5.00586 v -0.19531 c -1.668593,0 -3.337239,-7e-5 -5.00586,0 v -5.00586 h 5.00586 v -0.19336 -0.002 c -1.668593,0 -3.337239,-7e-5 -5.00586,0 v -5.00391 h 5.00586 v -0.19531 c -1.668593,0 -3.337239,-7e-5 -5.00586,0 v -5.00586 h 5.00586 v -0.19336 c -1.668593,0 -3.337239,-7e-5 -5.00586,0 v -5.00586 h 5.00586 v -0.19531 c -1.668593,0 -3.337239,-7e-5 -5.00586,0 v -5.00391 h 5.00586 v -0.19531 c -1.668593,0 -3.337239,-7e-5 -5.00586,0 v -5 h 5.00586 v -0.19922 -0.002 c -1.668593,0 -3.337239,-8e-5 -5.00586,0 v -5 h 5.00586 v -0.19922 c -1.668593,0 -3.337239,-8e-5 -5.00586,0 v -5 h 5.00586 v -0.19922 c -1.668593,0 -3.337239,-8e-5 -5.00586,0 v -5 h 5.00586 v -0.20117 c -1.668593,0 -3.337239,-7e-5 -5.00586,0 v -4.98047 l 0.0059,-0.0254 h -0.201172 v 5.00391 c -1.66797,7e-5 -3.335916,-1.2e-4 -5.003906,0 v -4.97852 l 0.0059,-0.0254 h -0.201172 v 5.00391 c -1.668642,1.2e-4 -3.337204,-1.3e-4 -5.005859,0 v -4.97852 l 0.0059,-0.0254 h -0.201172 v 5.00195 c -1.668004,1.4e-4 -3.335896,-1.1e-4 -5.003906,0 v -4.97656 l 0.0059,-0.0254 h -0.201171 v 5.00195 c -1.668011,1.1e-4 -3.335898,-5e-5 -5.003907,0 v -4.97656 l 0.0039,-0.0254 h -0.201172 v 5.00195 c -1.668009,6e-5 -3.335907,3e-5 -5.003907,0 v -4.97656 l 0.0059,-0.0254 h -0.201172 v 5.00195 c -1.667999,-3e-5 -3.335923,1.5e-4 -5.003906,0 v -4.97656 l 0.0059,-0.0254 H 21.82665 v 5.00195 c -1.668633,-1.5e-4 -3.337249,3e-4 -5.005859,0 v -4.97656 l 0.0059,-0.0254 h -0.201172 v 5.00195 c -1.667957,-3e-4 -3.335979,4.9e-4 -5.003906,0 v -4.97656 l 0.0059,-0.0254 h -0.201171 v 5.00195 c -1.6679258,-4.9e-4 -3.3360191,7e-4 -5.0039066,0 v -4.97656 l 0.00586,-0.0254 z m 0.1953124,5.20703 h 5.0039066 v 4.99414 c -1.6679258,-5e-4 -3.3360193,7.2e-4 -5.0039066,0 z m 5.1992186,0 h 5.003906 v 4.99414 c -1.667957,-3.1e-4 -3.335979,4.9e-4 -5.003906,0 z m 5.199219,0 h 5.005859 v 4.99414 c -1.668633,-1.5e-4 -3.337249,3e-4 -5.005859,0 z m 5.201172,0 h 5.003906 v 4.99414 c -1.668,-2e-5 -3.335923,1.5e-4 -5.003906,0 z m 5.199218,0 h 5.003907 v 4.99414 c -1.668009,7e-5 -3.335907,3e-5 -5.003907,0 z m 5.201172,0 h 5.003907 v 4.9961 c -1.668011,1.1e-4 -3.335898,-7e-5 -5.003907,0 z m 5.199219,0 h 5.003906 v 4.9961 c -1.668004,1.4e-4 -3.335896,-1.2e-4 -5.003906,0 z m 5.199219,0 h 5.005859 v 4.99805 c -1.668642,1.3e-4 -3.337204,-1.4e-4 -5.005859,0 z m 5.201172,0 h 5.003906 v 4.99805 c -1.66797,8e-5 -3.335916,-1.3e-4 -5.003906,0 z m -41.5996096,5.19922 h 5.0039066 v 4.99414 c -1.6679258,-5e-4 -3.3360193,7.2e-4 -5.0039066,0 z m 5.1992186,0 h 5.003906 v 4.99414 c -1.667957,-3.1e-4 -3.335979,4.9e-4 -5.003906,0 z m 5.199219,0 h 5.005859 v 4.99414 c -1.668633,-1.5e-4 -3.337249,3e-4 -5.005859,0 z m 5.201172,0 h 5.003906 v 4.99414 c -1.668,-3e-5 -3.335923,1.5e-4 -5.003906,0 z m 5.199218,0 h 5.003907 v 4.99414 c -1.668009,6e-5 -3.335907,2e-5 -5.003907,0 z m 5.201172,0 h 5.003907 v 4.99609 c -1.668011,1.2e-4 -3.335898,-6e-5 -5.003907,0 z m 5.199219,0 h 5.003906 v 4.99609 c -1.668004,1.4e-4 -3.335896,-1.2e-4 -5.003906,0 z m 5.199219,0 h 5.005859 v 4.99805 c -1.668642,1.2e-4 -3.337204,-1.4e-4 -5.005859,0 z m 5.201172,0 h 5.003906 v 4.99805 c -1.66797,8e-5 -3.335916,-1.3e-4 -5.003906,0 z m -41.5996096,5.19922 h 5.0039066 v 4.99609 c -1.6679258,-5e-4 -3.3360193,7.2e-4 -5.0039066,0 z m 5.1992186,0 h 5.003906 v 4.99609 c -1.667958,-3e-4 -3.335979,4.9e-4 -5.003906,0 z m 5.199219,0 h 5.005859 v 4.99609 c -1.668633,-1.5e-4 -3.337249,3e-4 -5.005859,0 z m 5.201172,0 h 5.003906 v 4.99609 c -1.668,-2e-5 -3.335923,1.5e-4 -5.003906,0 z m 5.199218,0 h 5.003907 v 4.99609 c -1.668009,7e-5 -3.335907,3e-5 -5.003907,0 z m 5.201172,0 h 5.003907 v 4.99609 c -1.668011,1.2e-4 -3.335898,-6e-5 -5.003907,0 z m 5.199219,0 h 5.003906 v 4.99609 c -1.668004,1.4e-4 -3.335896,-1.2e-4 -5.003906,0 z m 5.199219,0 h 5.005859 v 4.99805 c -1.668642,1.2e-4 -3.337204,-1.4e-4 -5.005859,0 z m 5.201172,0 h 5.003906 v 4.99805 c -1.66797,8e-5 -3.335916,-1.3e-4 -5.003906,0 z m -41.5996096,5.20117 h 5.0039066 v 4.99414 c -1.6679258,-4.9e-4 -3.3360193,7e-4 -5.0039066,0 z m 5.1992186,0 h 5.003906 v 4.99414 c -1.667957,-3e-4 -3.335979,4.8e-4 -5.003906,0 z m 5.199219,0 h 5.005859 v 4.99414 c -1.668633,-1.5e-4 -3.337249,3e-4 -5.005859,0 z m 5.201172,0 h 5.003906 v 4.99414 c -1.668,-3e-5 -3.335923,1.5e-4 -5.003906,0 z m 5.199218,0 h 5.003907 v 4.99414 c -1.668009,6e-5 -3.335907,3e-5 -5.003907,0 z m 5.201172,0 h 5.003907 v 4.99609 c -1.668011,1.1e-4 -3.335898,-5e-5 -5.003907,0 z m 5.199219,0 h 5.003906 v 4.99609 c -1.668004,1.4e-4 -3.335896,-1.1e-4 -5.003906,0 z m 5.199219,0 h 5.005859 v 4.99805 c -1.668642,1.2e-4 -3.337204,-1.3e-4 -5.005859,0 z m 5.201172,0 h 5.003906 v 4.99805 c -1.66797,7e-5 -3.335916,-1.2e-4 -5.003906,0 z m -41.5996096,5.19531 h 5.0039066 v 5 c -1.6679258,-4.9e-4 -3.3360193,7e-4 -5.0039066,0 z m 5.1992186,0 h 5.003906 v 5 c -1.667958,-3e-4 -3.335979,4.9e-4 -5.003906,0 z m 5.199219,0 h 5.005859 v 5 c -1.668633,-1.5e-4 -3.337249,3e-4 -5.005859,0 z m 5.201172,0 h 5.003906 v 5 c -1.668,-3e-5 -3.335923,1.5e-4 -5.003906,0 z m 5.199218,0 h 5.003907 v 5 c -1.668009,6e-5 -3.335907,3e-5 -5.003907,0 z m 5.201172,0 h 5.003907 v 5 c -1.668011,1.1e-4 -3.335898,-5e-5 -5.003907,0 z m 5.199219,0 h 5.003906 v 5 c -1.668004,1.4e-4 -3.335896,-1.1e-4 -5.003906,0 z m 5.199219,0 h 5.005859 v 5.00196 c -1.668642,1.2e-4 -3.337204,-1.3e-4 -5.005859,0 z m 5.201172,0 h 5.003906 v 5.00196 c -1.66797,7e-5 -3.335916,-1.2e-4 -5.003906,0 z m -41.5996096,5.19922 h 5.0039066 v 5 c -1.6679258,-4.9e-4 -3.3360193,7e-4 -5.0039066,0 z m 5.1992186,0 h 5.003906 v 5 c -1.667957,-3e-4 -3.335979,4.8e-4 -5.003906,0 z m 5.199219,0 h 5.005859 v 5 c -1.668633,-1.5e-4 -3.337249,3e-4 -5.005859,0 z m 5.201172,0 h 5.003906 v 5 c -1.668,-3e-5 -3.335923,1.5e-4 -5.003906,0 z m 5.199218,0 h 5.003907 v 5 c -1.668009,6e-5 -3.335907,3e-5 -5.003907,0 z m 5.201172,0 h 5.003907 v 5.00196 c -1.668011,1.1e-4 -3.335898,-6e-5 -5.003907,0 z m 5.199219,0 h 5.003906 v 5.00196 c -1.668004,1.3e-4 -3.335896,-1.2e-4 -5.003906,0 z m 5.199219,0 h 5.005859 v 5.00391 c -1.668642,1.2e-4 -3.337204,-1.3e-4 -5.005859,0 z m 5.201172,0 h 5.003906 v 5.00391 c -1.66797,8e-5 -3.335916,-1.2e-4 -5.003906,0 z M 6.4221164,166.7303 h 5.0039066 v 5 c -1.6679258,-4.9e-4 -3.3360193,7e-4 -5.0039066,0 z m 5.1992186,0 h 5.003906 v 5 c -1.667957,-3e-4 -3.335979,4.8e-4 -5.003906,0 z m 5.199219,0 h 5.005859 v 5 c -1.668633,-1.5e-4 -3.337249,3e-4 -5.005859,0 z m 5.201172,0 h 5.003906 v 5 c -1.668,-3e-5 -3.335923,1.5e-4 -5.003906,0 z m 5.199218,0 h 5.003907 v 5 c -1.668009,6e-5 -3.335907,3e-5 -5.003907,0 z m 5.201172,0 h 5.003907 v 5.00195 c -1.668011,1.1e-4 -3.335898,-5e-5 -5.003907,0 z m 5.199219,0 h 5.003906 v 5.00195 c -1.668004,1.4e-4 -3.335896,-1.1e-4 -5.003906,0 z m 5.199219,0 h 5.005859 v 5.00391 c -1.668642,1.2e-4 -3.337204,-1.3e-4 -5.005859,0 z m 5.201172,0 h 5.003906 v 5.00391 c -1.66797,7e-5 -3.335916,-1.2e-4 -5.003906,0 z m -41.5996096,5.20117 h 5.0039066 v 5 c -1.6679258,-4.9e-4 -3.3360193,7e-4 -5.0039066,0 z m 5.1992186,0 h 5.003906 v 5 c -1.667958,-3e-4 -3.335979,4.9e-4 -5.003906,0 z m 5.199219,0 h 5.005859 v 5 c -1.668633,-1.5e-4 -3.337249,3e-4 -5.005859,0 z m 5.201172,0 h 5.003906 v 5 c -1.668,-3e-5 -3.335923,1.5e-4 -5.003906,0 z m 5.199218,0 h 5.003907 v 5 c -1.668009,6e-5 -3.335907,3e-5 -5.003907,0 z m 5.201172,0 h 5.003907 v 5 c -1.668011,1.1e-4 -3.335898,-5e-5 -5.003907,0 z m 5.199219,0 h 5.003906 v 5 c -1.668004,1.3e-4 -3.335896,-1.1e-4 -5.003906,0 z m 5.199219,0 h 5.005859 v 5.00196 c -1.668642,1.2e-4 -3.337204,-1.4e-4 -5.005859,0 z m 5.201172,0 h 5.003906 v 5.00196 c -1.66797,7e-5 -3.335916,-1.2e-4 -5.003906,0 z m -41.5996096,5.19922 h 5.0039066 v 5 c -1.6679258,-4.9e-4 -3.3360193,7e-4 -5.0039066,0 z m 5.1992186,0 h 5.003906 v 5 c -1.667957,-3e-4 -3.335979,4.8e-4 -5.003906,0 z m 5.199219,0 h 5.005859 v 5 c -1.668633,-1.5e-4 -3.337249,3e-4 -5.005859,0 z m 5.201172,0 h 5.003906 v 5 c -1.668,-3e-5 -3.335923,1.5e-4 -5.003906,0 z m 5.199218,0 h 5.003907 v 5 c -1.668009,6e-5 -3.335907,3e-5 -5.003907,0 z m 5.201172,0 h 5.003907 v 5.00195 c -1.668011,1.1e-4 -3.335898,-5e-5 -5.003907,0 z m 5.199219,0 h 5.003906 v 5.00195 c -1.668004,1.4e-4 -3.335896,-1.1e-4 -5.003906,0 z m 5.199219,0 h 5.005859 v 5.00391 c -1.668642,1.2e-4 -3.337204,-1.3e-4 -5.005859,0 z m 5.201172,0 h 5.003906 v 5.00391 c -1.66797,7e-5 -3.335916,-1.2e-4 -5.003906,0 z" /></g><g
     inkscape:groupmode="layer"
     id="layer1"
     inkscape:label="panels"
     transform="matrix(2.2474958,0,0,0.30025781,-2.8385739,71.830508)"><rect
       style="fill:#a0a29f;fill-opacity:1;stroke-width:0.981653"
       id="rect242"
       width="57"
       height="57"
       x="1.2252849"
       y="130.28397"
       inkscape:label="baseplate" /><path
       id="path1159"
       style="font-variation-settings:normal;opacity:1;vector-effect:none;fill:#4f4f4f;fill-opacity:1;stroke-width:0.865613;stroke-linecap:butt;stroke-linejoin:miter;stroke-miterlimit:4;stroke-dasharray:none;stroke-dashoffset:0;stroke-opacity:1;-inkscape-stroke:none;stop-color:#000000;stop-opacity:1"
       inkscape:label="measureright"
       d="m 6.2268883,130.28585 v 5.00195 c -1.6665839,-7e-4 -3.3334615,9.5e-4 -5,0 v 0.20508 h 5 v 4.99414 c -1.6665836,-7.2e-4 -3.333462,9.8e-4 -5,0 v 0.20508 h 5 v 4.99414 c -1.6665836,-7.2e-4 -3.333462,9.7e-4 -5,0 v 0.20508 h 5 v 4.99609 c -1.6665836,-7.2e-4 -3.333462,9.8e-4 -5,0 v 0.20508 h 5 v 4.99414 c -1.6665836,-7.1e-4 -3.333462,9.5e-4 -5,0 v 0.20117 h 5 v 5 c -1.6665836,-7e-4 -3.333462,9.5e-4 -5,0 v 0.19922 h 5 v 5 c -1.6665836,-7e-4 -3.333462,9.5e-4 -5,0 v 0.19922 h 5 v 5 c -1.6665836,-7.1e-4 -3.333462,9.5e-4 -5,0 v 0.20117 h 5 v 5 c -1.6665836,-7e-4 -3.333462,9.5e-4 -5,0 v 0.19922 h 5 v 5 c -1.6665836,-7.1e-4 -3.333462,9.5e-4 -5,0 v 0.20117 h 5 v 4.99805 h 0.1953124 v -4.99805 h 5.0039063 v 4.99805 h 0.195312 v -4.99805 h 5.003906 v 4.99805 h 0.195313 v -4.99805 h 5.005859 v 4.99805 h 0.195313 v -4.99805 h 5.003906 v 4.99805 h 0.195312 v -4.99805 h 5.003907 v 4.99805 H 32.4222 v -4.99805 h 5.003907 v 4.99805 h 0.195312 v -4.99805 h 5.003906 v 4.99805 h 0.195313 v -4.99805 h 5.005859 v 4.99805 h 0.195313 v -4.99805 h 5.003906 v 4.99805 h 0.195312 v -4.99805 h 5.00586 v -0.19531 c -1.668593,0 -3.337239,-7e-5 -5.00586,0 v -5.00586 h 5.00586 v -0.19336 -0.002 c -1.668593,0 -3.337239,-7e-5 -5.00586,0 v -5.00391 h 5.00586 v -0.19531 c -1.668593,0 -3.337239,-7e-5 -5.00586,0 v -5.00586 h 5.00586 v -0.19336 c -1.668593,0 -3.337239,-7e-5 -5.00586,0 v -5.00586 h 5.00586 v -0.19531 c -1.668593,0 -3.337239,-7e-5 -5.00586,0 v -5.00391 h 5.00586 v -0.19531 c -1.668593,0 -3.337239,-7e-5 -5.00586,0 v -5 h 5.00586 v -0.19922 -0.002 c -1.668593,0 -3.337239,-8e-5 -5.00586,0 v -5 h 5.00586 V 145.692 c -1.668593,0 -3.337239,-8e-5 -5.00586,0 v -5 h 5.00586 v -0.19922 c -1.668593,0 -3.337239,-8e-5 -5.00586,0 v -5 h 5.00586 v -0.20117 c -1.668593,0 -3.337239,-7e-5 -5.00586,0 v -4.98047 l 0.0059,-0.0254 h -0.201172 v 5.00391 c -1.66797,7e-5 -3.335916,-1.2e-4 -5.003906,0 v -4.97852 l 0.0059,-0.0254 h -0.201172 v 5.00391 c -1.668642,1.2e-4 -3.337204,-1.3e-4 -5.005859,0 v -4.97852 l 0.0059,-0.0254 h -0.201172 v 5.00195 c -1.668004,1.4e-4 -3.335896,-1.1e-4 -5.003906,0 v -4.97656 l 0.0059,-0.0254 H 37.42627 v 5.00195 c -1.668011,1.1e-4 -3.335898,-5e-5 -5.003907,0 v -4.97656 l 0.0039,-0.0254 h -0.201172 v 5.00195 c -1.668009,6e-5 -3.335907,3e-5 -5.003907,0 v -4.97656 l 0.0059,-0.0254 h -0.201172 v 5.00195 c -1.667999,-3e-5 -3.335923,1.5e-4 -5.003906,0 v -4.97656 l 0.0059,-0.0254 h -0.201172 v 5.00195 c -1.668633,-1.5e-4 -3.337249,3e-4 -5.005859,0 v -4.97656 l 0.0059,-0.0254 h -0.201172 v 5.00195 c -1.667957,-3e-4 -3.335979,4.9e-4 -5.003906,0 v -4.97656 l 0.0059,-0.0254 h -0.201171 v 5.00195 c -1.6679255,-4.9e-4 -3.3360188,7e-4 -5.0039063,0 v -4.97656 l 0.00586,-0.0254 z m 0.1953124,5.20703 h 5.0039063 v 4.99414 c -1.6679255,-5e-4 -3.336019,7.2e-4 -5.0039063,0 z m 5.1992183,0 h 5.003906 v 4.99414 c -1.667957,-3.1e-4 -3.335979,4.9e-4 -5.003906,0 z m 5.199219,0 h 5.005859 v 4.99414 c -1.668633,-1.5e-4 -3.337249,3e-4 -5.005859,0 z m 5.201172,0 h 5.003906 v 4.99414 c -1.668,-2e-5 -3.335923,1.5e-4 -5.003906,0 z m 5.199218,0 h 5.003907 v 4.99414 c -1.668009,7e-5 -3.335907,3e-5 -5.003907,0 z m 5.201172,0 h 5.003907 v 4.9961 c -1.668011,1.1e-4 -3.335898,-7e-5 -5.003907,0 z m 5.199219,0 h 5.003906 v 4.9961 c -1.668004,1.4e-4 -3.335896,-1.2e-4 -5.003906,0 z m 5.199219,0 h 5.005859 v 4.99805 c -1.668642,1.3e-4 -3.337204,-1.4e-4 -5.005859,0 z m 5.201172,0 h 5.003906 v 4.99805 c -1.66797,8e-5 -3.335916,-1.3e-4 -5.003906,0 z M 6.4222007,140.6921 h 5.0039063 v 4.99414 c -1.6679255,-5e-4 -3.336019,7.2e-4 -5.0039063,0 z m 5.1992183,0 h 5.003906 v 4.99414 c -1.667957,-3.1e-4 -3.335979,4.9e-4 -5.003906,0 z m 5.199219,0 h 5.005859 v 4.99414 c -1.668633,-1.5e-4 -3.337249,3e-4 -5.005859,0 z m 5.201172,0 h 5.003906 v 4.99414 c -1.668,-3e-5 -3.335923,1.5e-4 -5.003906,0 z m 5.199218,0 h 5.003907 v 4.99414 c -1.668009,6e-5 -3.335907,2e-5 -5.003907,0 z m 5.201172,0 h 5.003907 v 4.99609 c -1.668011,1.2e-4 -3.335898,-6e-5 -5.003907,0 z m 5.199219,0 h 5.003906 v 4.99609 c -1.668004,1.4e-4 -3.335896,-1.2e-4 -5.003906,0 z m 5.199219,0 h 5.005859 v 4.99805 c -1.668642,1.2e-4 -3.337204,-1.4e-4 -5.005859,0 z m 5.201172,0 h 5.003906 v 4.99805 c -1.66797,8e-5 -3.335916,-1.3e-4 -5.003906,0 z m -41.5996093,5.19922 h 5.0039063 v 4.99609 c -1.6679255,-5e-4 -3.336019,7.2e-4 -5.0039063,0 z m 5.1992183,0 h 5.003906 v 4.99609 c -1.667958,-3e-4 -3.335979,4.9e-4 -5.003906,0 z m 5.199219,0 h 5.005859 v 4.99609 c -1.668633,-1.5e-4 -3.337249,3e-4 -5.005859,0 z m 5.201172,0 h 5.003906 v 4.99609 c -1.668,-2e-5 -3.335923,1.5e-4 -5.003906,0 z m 5.199218,0 h 5.003907 v 4.99609 c -1.668009,7e-5 -3.335907,3e-5 -5.003907,0 z m 5.201172,0 h 5.003907 v 4.99609 c -1.668011,1.2e-4 -3.335898,-6e-5 -5.003907,0 z m 5.199219,0 h 5.003906 v 4.99609 c -1.668004,1.4e-4 -3.335896,-1.2e-4 -5.003906,0 z m 5.199219,0 h 5.005859 v 4.99805 c -1.668642,1.2e-4 -3.337204,-1.4e-4 -5.005859,0 z m 5.201172,0 h 5.003906 v 4.99805 c -1.66797,8e-5 -3.335916,-1.3e-4 -5.003906,0 z m -41.5996093,5.20117 h 5.0039063 v 4.99414 c -1.6679255,-4.9e-4 -3.336019,7e-4 -5.0039063,0 z m 5.1992183,0 h 5.003906 v 4.99414 c -1.667957,-3e-4 -3.335979,4.8e-4 -5.003906,0 z m 5.199219,0 h 5.005859 v 4.99414 c -1.668633,-1.5e-4 -3.337249,3e-4 -5.005859,0 z m 5.201172,0 h 5.003906 v 4.99414 c -1.668,-3e-5 -3.335923,1.5e-4 -5.003906,0 z m 5.199218,0 h 5.003907 v 4.99414 c -1.668009,6e-5 -3.335907,3e-5 -5.003907,0 z m 5.201172,0 h 5.003907 v 4.99609 c -1.668011,1.1e-4 -3.335898,-5e-5 -5.003907,0 z m 5.199219,0 h 5.003906 v 4.99609 c -1.668004,1.4e-4 -3.335896,-1.1e-4 -5.003906,0 z m 5.199219,0 h 5.005859 v 4.99805 c -1.668642,1.2e-4 -3.337204,-1.3e-4 -5.005859,0 z m 5.201172,0 h 5.003906 v 4.99805 c -1.66797,7e-5 -3.335916,-1.2e-4 -5.003906,0 z M 6.4222007,156.2878 h 5.0039063 v 5 c -1.6679255,-4.9e-4 -3.336019,7e-4 -5.0039063,0 z m 5.1992183,0 h 5.003906 v 5 c -1.667958,-3e-4 -3.335979,4.9e-4 -5.003906,0 z m 5.199219,0 h 5.005859 v 5 c -1.668633,-1.5e-4 -3.337249,3e-4 -5.005859,0 z m 5.201172,0 h 5.003906 v 5 c -1.668,-3e-5 -3.335923,1.5e-4 -5.003906,0 z m 5.199218,0 h 5.003907 v 5 c -1.668009,6e-5 -3.335907,3e-5 -5.003907,0 z m 5.201172,0 h 5.003907 v 5 c -1.668011,1.1e-4 -3.335898,-5e-5 -5.003907,0 z m 5.199219,0 h 5.003906 v 5 c -1.668004,1.4e-4 -3.335896,-1.1e-4 -5.003906,0 z m 5.199219,0 h 5.005859 v 5.00196 c -1.668642,1.2e-4 -3.337204,-1.3e-4 -5.005859,0 z m 5.201172,0 h 5.003906 v 5.00196 c -1.66797,7e-5 -3.335916,-1.2e-4 -5.003906,0 z m -41.5996093,5.19922 h 5.0039063 v 5 c -1.6679255,-4.9e-4 -3.336019,7e-4 -5.0039063,0 z m 5.1992183,0 h 5.003906 v 5 c -1.667957,-3e-4 -3.335979,4.8e-4 -5.003906,0 z m 5.199219,0 h 5.005859 v 5 c -1.668633,-1.5e-4 -3.337249,3e-4 -5.005859,0 z m 5.201172,0 h 5.003906 v 5 c -1.668,-3e-5 -3.335923,1.5e-4 -5.003906,0 z m 5.199218,0 h 5.003907 v 5 c -1.668009,6e-5 -3.335907,3e-5 -5.003907,0 z m 5.201172,0 h 5.003907 v 5.00196 c -1.668011,1.1e-4 -3.335898,-6e-5 -5.003907,0 z m 5.199219,0 h 5.003906 v 5.00196 c -1.668004,1.3e-4 -3.335896,-1.2e-4 -5.003906,0 z m 5.199219,0 h 5.005859 v 5.00391 c -1.668642,1.2e-4 -3.337204,-1.3e-4 -5.005859,0 z m 5.201172,0 h 5.003906 v 5.00391 c -1.66797,8e-5 -3.335916,-1.2e-4 -5.003906,0 z m -41.5996093,5.19922 h 5.0039063 v 5 c -1.6679255,-4.9e-4 -3.336019,7e-4 -5.0039063,0 z m 5.1992183,0 h 5.003906 v 5 c -1.667957,-3e-4 -3.335979,4.8e-4 -5.003906,0 z m 5.199219,0 h 5.005859 v 5 c -1.668633,-1.5e-4 -3.337249,3e-4 -5.005859,0 z m 5.201172,0 h 5.003906 v 5 c -1.668,-3e-5 -3.335923,1.5e-4 -5.003906,0 z m 5.199218,0 h 5.003907 v 5 c -1.668009,6e-5 -3.335907,3e-5 -5.003907,0 z m 5.201172,0 h 5.003907 v 5.00195 c -1.668011,1.1e-4 -3.335898,-5e-5 -5.003907,0 z m 5.199219,0 h 5.003906 v 5.00195 c -1.668004,1.4e-4 -3.335896,-1.1e-4 -5.003906,0 z m 5.199219,0 h 5.005859 v 5.00391 c -1.668642,1.2e-4 -3.337204,-1.3e-4 -5.005859,0 z m 5.201172,0 h 5.003906 v 5.00391 c -1.66797,7e-5 -3.335916,-1.2e-4 -5.003906,0 z m -41.5996093,5.20117 h 5.0039063 v 5 c -1.6679255,-4.9e-4 -3.336019,7e-4 -5.0039063,0 z m 5.1992183,0 h 5.003906 v 5 c -1.667958,-3e-4 -3.335979,4.9e-4 -5.003906,0 z m 5.199219,0 h 5.005859 v 5 c -1.668633,-1.5e-4 -3.337249,3e-4 -5.005859,0 z m 5.201172,0 h 5.003906 v 5 c -1.668,-3e-5 -3.335923,1.5e-4 -5.003906,0 z m 5.199218,0 h 5.003907 v 5 c -1.668009,6e-5 -3.335907,3e-5 -5.003907,0 z m 5.201172,0 h 5.003907 v 5 c -1.668011,1.1e-4 -3.335898,-5e-5 -5.003907,0 z m 5.199219,0 h 5.003906 v 5 c -1.668004,1.3e-4 -3.335896,-1.1e-4 -5.003906,0 z m 5.199219,0 h 5.005859 v 5.00196 c -1.668642,1.2e-4 -3.337204,-1.4e-4 -5.005859,0 z m 5.201172,0 h 5.003906 v 5.00196 c -1.66797,7e-5 -3.335916,-1.2e-4 -5.003906,0 z m -41.5996093,5.19922 h 5.0039063 v 5 c -1.6679255,-4.9e-4 -3.336019,7e-4 -5.0039063,0 z m 5.1992183,0 h 5.003906 v 5 c -1.667957,-3e-4 -3.335979,4.8e-4 -5.003906,0 z m 5.199219,0 h 5.005859 v 5 c -1.668633,-1.5e-4 -3.337249,3e-4 -5.005859,0 z m 5.201172,0 h 5.003906 v 5 c -1.668,-3e-5 -3.335923,1.5e-4 -5.003906,0 z m 5.199218,0 h 5.003907 v 5 c -1.668009,6e-5 -3.335907,3e-5 -5.003907,0 z m 5.201172,0 h 5.003907 v 5.00195 c -1.668011,1.1e-4 -3.335898,-5e-5 -5.003907,0 z m 5.199219,0 h 5.003906 v 5.00195 c -1.668004,1.4e-4 -3.335896,-1.1e-4 -5.003906,0 z m 5.199219,0 h 5.005859 v 5.00391 c -1.668642,1.2e-4 -3.337204,-1.3e-4 -5.005859,0 z m 5.201172,0 h 5.003906 v 5.00391 c -1.66797,7e-5 -3.335916,-1.2e-4 -5.003906,0 z" /><ellipse
       style="font-variation-settings:normal;opacity:1;fill:#000000;fill-opacity:1;stroke:#00a8f3;stroke-width:1.29887638;stroke-linecap:butt;stroke-linejoin:miter;stroke-miterlimit:4;stroke-dasharray:none;stroke-dashoffset:0;stroke-opacity:1;stop-color:#000000;stop-opacity:1"
       id="path21195"
       cx="17.255821"
       cy="159.02953"
       rx="9.3904133"
       ry="18.570997"
       inkscape:label="portal" /><image
        class="loadpfp"
       width="45.363628"
       height="114.09789"
       preserveAspectRatio="none"
       xlink:href="https://quarky.vukky.net/assets/img/loading.png"
       id="image23128"
       x="63.957611"
       y="19.463772"
       transform="matrix(0.34156563,-0.93985793,0.04905189,0.99879623,0,0)"
       inkscape:label="pfp" /></g></svg>
