<?xml version="1.0" encoding="UTF-8" standalone="no"?>
<!-- Created with Inkscape (http://www.inkscape.org/) -->

<svg
   version="1.1"
   id="svg129"
   width="128"
   height="128"
   viewBox="0 0 128 128"
   sodipodi:docname="vukkyload.svg"
   inkscape:export-filename="spookyvukky.svg"
   inkscape:export-xdpi="96"
   inkscape:export-ydpi="96"
   inkscape:version="1.2.2 (732a01da63, 2022-12-09)"
   xmlns:inkscape="http://www.inkscape.org/namespaces/inkscape"
   xmlns:sodipodi="http://sodipodi.sourceforge.net/DTD/sodipodi-0.dtd"
   xmlns="http://www.w3.org/2000/svg"
   xmlns:svg="http://www.w3.org/2000/svg">
  <defs
     id="defs133">
    <filter
       id="mask-powermask-path-effect6993_inverse"
       inkscape:label="filtermask-powermask-path-effect6993"
       style="color-interpolation-filters:sRGB"
       height="100"
       width="100"
       x="-50"
       y="-50">
      <feColorMatrix
         id="mask-powermask-path-effect6993_primitive1"
         values="1"
         type="saturate"
         result="fbSourceGraphic" />
      <feColorMatrix
         id="mask-powermask-path-effect6993_primitive2"
         values="-1 0 0 0 1 0 -1 0 0 1 0 0 -1 0 1 0 0 0 1 0 "
         in="fbSourceGraphic" />
    </filter>
    <filter
       id="mask-powermask-path-effect7161_inverse"
       inkscape:label="filtermask-powermask-path-effect7161"
       style="color-interpolation-filters:sRGB"
       height="100"
       width="100"
       x="-50"
       y="-50">
      <feColorMatrix
         id="mask-powermask-path-effect7161_primitive1"
         values="1"
         type="saturate"
         result="fbSourceGraphic" />
      <feColorMatrix
         id="mask-powermask-path-effect7161_primitive2"
         values="-1 0 0 0 1 0 -1 0 0 1 0 0 -1 0 1 0 0 0 1 0 "
         in="fbSourceGraphic" />
    </filter>
    <clipPath
       clipPathUnits="userSpaceOnUse"
       id="clipPath963">
      <path
         id="path965"
         style="display:inline;fill:#00a8f3;fill-opacity:1;stroke:none;stroke-width:0.0443677"
         inkscape:label="bodycolor"
         d="m 118.05587,64.610157 c -0.57454,-0.379466 -1.20415,-0.751935 -1.82022,-1.065693 -1.23217,-0.627514 -2.4106,-1.019833 -3.57749,-1.191441 -1.16689,-0.171609 -2.32197,-0.122656 -3.15664,0.150358 -0.83467,0.273018 -1.34877,0.769746 -1.96767,1.572382 -0.6189,0.802637 -1.34285,1.911207 -1.74282,2.455136 -0.39997,0.543928 -0.47628,0.523489 -0.76036,-0.187709 -0.28407,-0.711197 -0.77569,-2.11333 -1.10377,-2.889464 -0.32809,-0.776135 -0.49249,-0.926078 -0.67924,-0.999636 -0.18675,-0.07355 -0.39593,-0.07056 -0.56754,-0.02295 -0.17161,0.04761 -0.30573,0.139457 -0.40546,0.296503 -0.0997,0.157046 -0.16478,0.37901 0.14769,1.338476 0.31246,0.959464 1.00239,2.656857 1.34741,3.505259 0.34501,0.848405 0.34518,0.848307 0.28257,0.977125 -0.0626,0.128818 -0.18794,0.386143 -0.7136,1.290089 -0.52566,0.903946 -1.45179,2.454466 -1.9904,3.34664 -0.53861,0.892174 -0.68981,1.126253 -0.70353,1.354174 -0.0137,0.227941 0.10978,0.449924 0.38827,0.715426 0.27849,0.265508 0.71216,0.57478 1.01666,0.83768 0.30451,0.262903 0.47985,0.479073 0.58661,0.610757 0.10675,0.131682 0.14481,0.178701 -0.10021,0.674862 -0.24505,0.496206 -0.77308,1.441893 -1.04402,1.936632 -0.27096,0.494783 -0.28471,0.538737 -0.27963,0.647743 0.005,0.109011 0.0287,0.283091 0.10941,0.428143 0.0807,0.14505 0.21793,0.261129 0.37502,0.354649 0.15708,0.09351 0.33424,0.16452 0.48977,0.173145 0.15553,0.0086 0.28989,-0.04512 0.6619,-0.546531 0.37204,-0.501455 0.98175,-1.450858 1.28496,-1.937673 0.30323,-0.4868 0.29949,-0.510973 0.85191,-0.127815 0.55242,0.383162 1.66102,1.173953 2.22629,1.58537 0.56528,0.411418 0.58771,0.443378 0.26732,0.954187 -0.32038,0.510809 -0.98344,1.500491 -1.32718,2.047464 -0.34372,0.546923 -0.36858,0.651148 -0.34538,0.801508 0.0232,0.150363 0.0943,0.347003 0.2045,0.501994 0.11017,0.154992 0.25934,0.268481 0.41687,0.307846 0.15754,0.03937 0.32362,0.0047 0.45274,-0.02167 0.12913,-0.02635 0.2216,-0.04453 0.62674,-0.558572 0.40511,-0.514008 1.12307,-1.524351 1.48422,-2.046999 0.36116,-0.522647 0.36541,-0.557697 0.81643,-0.269878 0.45103,0.28781 1.34885,0.898692 1.89953,1.197685 0.55067,0.298992 0.75416,0.286161 0.91976,0.251039 0.16559,-0.03513 0.29309,-0.09239 0.74622,-0.743211 0.45311,-0.650806 1.23173,-1.895206 1.76666,-2.780085 0.53493,-0.884874 0.82639,-1.410565 1.14197,-1.927959 0.31558,-0.517394 0.65567,-1.026561 0.84587,-1.286709 0.19024,-0.260111 0.23061,-0.270771 1.14441,-0.238277 0.91381,0.0325 2.70102,0.108504 3.79485,0.09473 1.09387,-0.01373 1.49442,-0.117192 1.67522,-0.345759 0.1808,-0.228571 0.14183,-0.582743 -0.0189,-0.843474 -0.16072,-0.260768 -0.44317,-0.428102 -0.85803,-0.513784 -0.41486,-0.08569 -0.9621,-0.08962 -1.5936,-0.06729 -0.6315,0.02233 -1.34723,0.07099 -1.80102,0.09177 -0.45378,0.02078 -0.6456,0.0137 -0.75222,0.01307 -0.10661,-6.26e-4 -0.12794,0.0051 0.091,-0.337421 0.21896,-0.342498 0.67817,-1.033465 0.98858,-1.587842 0.31041,-0.55438 0.47198,-0.972078 0.64835,-1.519696 0.17638,-0.54761 0.36771,-1.225236 0.45189,-1.856424 0.0842,-0.631177 0.0612,-1.216118 -0.0997,-1.760185 -0.16094,-0.544062 -0.46005,-1.047475 -1.25248,-1.730485 -0.39621,-0.341507 -0.91599,-0.727754 -1.49054,-1.107221 z" />
    </clipPath>
  </defs>
  <sodipodi:namedview
     id="namedview131"
     pagecolor="#505050"
     bordercolor="#eeeeee"
     borderopacity="1"
     inkscape:showpageshadow="0"
     inkscape:pageopacity="0"
     inkscape:pagecheckerboard="0"
     inkscape:deskcolor="#505050"
     showgrid="false"
     inkscape:zoom="5.6568542"
     inkscape:cx="44.370951"
     inkscape:cy="128.60505"
     inkscape:window-width="1920"
     inkscape:window-height="1027"
     inkscape:window-x="-8"
     inkscape:window-y="-8"
     inkscape:window-maximized="1"
     inkscape:current-layer="layer2"
     showguides="false" />
  <g
     inkscape:label="Image"
     id="g7198"
     inkscape:groupmode="layer"
     transform="translate(4.5451088e-8)">
    <path
       id="path961"
       style="display:inline;fill:#00a8f3;fill-opacity:1;stroke:none;stroke-width:0.205357"
       inkscape:label="bodycolor"
       d="M 69.685547 13.861328 C 66.660174 13.850258 63.449343 14.014934 60.429688 14.382812 C 54.390327 15.118619 49.115115 16.669697 44.414062 19.089844 C 39.713035 21.509965 35.586805 24.797821 33.177734 28.142578 C 30.768689 31.487335 30.076506 34.887164 29.736328 39.814453 C 29.39615 44.741742 29.407134 51.197251 29.248047 54.484375 C 29.08896 57.771499 28.759317 57.892194 26.001953 55.751953 C 23.244589 53.611713 18.059888 49.209227 14.984375 46.921875 C 11.908862 44.634523 10.943489 44.462731 10.080078 44.662109 C 9.2166675 44.861512 8.455298 45.43299 7.9394531 46.085938 C 7.4236083 46.73886 7.1520947 47.471962 7.1640625 48.378906 C 7.1760305 49.285851 7.4717691 50.364815 10.931641 53.441406 C 14.39149 56.517998 21.016265 61.594131 24.328125 64.130859 C 27.639985 66.667612 27.640363 66.66676 27.720703 67.359375 C 27.801043 68.05199 27.960501 69.436287 28.207031 74.527344 C 28.453562 79.6184 28.786448 88.41646 28.957031 93.494141 C 29.127615 98.571821 29.136018 99.930501 29.634766 100.89648 C 30.133488 101.86259 31.122193 102.43743 32.785156 102.77539 C 34.448144 103.11336 36.786779 103.21487 38.539062 103.47266 C 40.291371 103.73045 41.456462 104.14305 42.166016 104.39453 C 42.875545 104.64601 43.12866 104.73598 43.423828 107.41406 C 43.718996 110.0924 44.057392 115.35998 44.253906 118.10156 C 44.45042 120.84339 44.505805 121.05936 44.787109 121.49023 C 45.068438 121.92111 45.574784 122.56764 46.220703 122.94336 C 46.866622 123.31907 47.650624 123.42539 48.453125 123.38672 C 49.255626 123.34802 50.077668 123.16386 50.669922 122.7832 C 51.262151 122.40255 51.62636 121.82417 51.785156 118.78516 C 51.943953 115.74589 51.896733 110.24477 51.837891 107.44922 C 51.779171 104.65367 51.707182 104.56511 54.660156 104.65039 C 57.61313 104.73569 63.591863 104.99598 66.660156 105.16211 C 69.728449 105.32824 69.887858 105.39859 69.941406 108.33789 C 69.994956 111.27719 69.943207 117.08517 69.998047 120.23438 C 70.052847 123.38333 70.212633 123.87475 70.660156 124.42578 C 71.107705 124.97681 71.842864 125.58838 72.621094 125.92578 C 73.399324 126.26318 74.220863 126.32709 74.894531 126.06641 C 75.568225 125.80572 76.09491 125.22022 76.505859 124.76758 C 76.916834 124.31493 77.212802 123.99357 77.462891 120.81445 C 77.712954 117.63558 77.916649 111.59657 77.984375 108.5 C 78.052105 105.40343 77.983278 105.24916 80.333984 105.2168 C 82.684672 105.1844 87.455447 105.2747 90.199219 105.02148 C 92.942965 104.76827 93.659754 104.17189 94.183594 103.58594 C 94.707409 102.99998 95.037931 102.42562 95.134766 98.560547 C 95.231596 94.695573 95.094256 87.540053 94.927734 82.501953 C 94.761241 77.463853 94.565573 74.541199 94.478516 71.587891 C 94.391456 68.634582 94.414268 65.649292 94.486328 64.080078 C 94.558638 62.510889 94.681276 62.3595 98.117188 60.048828 C 101.55314 57.738156 108.30313 53.269693 112.28906 50.289062 C 116.27524 47.308457 117.49771 45.81572 117.61133 44.400391 C 117.72495 42.985036 116.72838 41.645191 115.50977 41.011719 C 114.2909 40.378222 112.84993 40.4511 111.11914 41.210938 C 109.38835 41.97075 107.36812 43.417821 105.10156 45.197266 C 102.835 46.976685 100.32241 49.088712 98.705078 50.386719 C 97.087797 51.684701 96.365921 52.168684 95.972656 52.451172 C 95.579416 52.73366 95.514799 52.813929 95.494141 50.832031 C 95.473481 48.850134 95.495941 44.805119 95.300781 41.714844 C 95.105592 38.624569 94.692852 36.489516 94.021484 33.785156 C 93.350142 31.080821 92.420483 27.806397 91.208984 25.007812 C 89.997528 22.209253 88.503797 19.885672 86.601562 18.097656 C 84.699353 16.309641 82.387388 15.056794 77.830078 14.390625 C 75.551423 14.057528 72.71092 13.872403 69.685547 13.861328 z " />
  </g>
  <g
     id="layer1"
     inkscape:label="Trans flag"
     transform="matrix(3.6743529,-2.6736291,2.4094116,4.0772846,-519.76586,66.064951)"
     clip-path="url(#clipPath963)"
     inkscape:groupmode="layer">
    <g
       inkscape:groupmode="layer"
       id="layer2"
       inkscape:label="Trans flag 1"
       transform="matrix(2,0,0,2,-104.17232,-45.239217)">
      <rect
         style="fill:#5bcefa;fill-opacity:1;stroke:#ffff00;stroke-width:0;stop-color:#000000"
         id="rect6913"
         width="25"
         height="2.9999993"
         x="98.834846"
         y="77" />
      <rect
         style="fill:#f5a9b8;fill-opacity:1;stroke:#ffff00;stroke-width:0;stop-color:#000000"
         id="rect6911"
         width="25"
         height="2.9999993"
         x="98.834846"
         y="74" />
      <rect
         style="fill:#ffffff;fill-opacity:1;stroke:#ffff00;stroke-width:0;stop-color:#000000"
         id="rect5448"
         width="25"
         height="2.9999993"
         x="98.834846"
         y="71" />
      <rect
         style="fill:#f5a9b8;fill-opacity:1;stroke:#ffff00;stroke-width:0;stop-color:#000000"
         id="rect3972"
         width="25"
         height="2.9999993"
         x="98.834846"
         y="68" />
      <rect
         style="fill:#5bcefa;fill-opacity:1;stroke:#ffff00;stroke-width:0;stop-color:#000000"
         id="rect1261"
         width="25"
         height="2.9999993"
         x="98.834846"
         y="65" />
    </g>
  </g>
  
  <style>
	#layer2 { 
		animation: slider 3s infinite ease-in-out;
	}
	@keyframes slider {
		0% {
			transform: matrix(2,0,0,2,-104.17232,-45.239217);
		}
		50% {
			transform: matrix(2,0,0,2,-118.03024,-97.982889);
		}
		100% {
			transform: matrix(2,0,0,2,-118.03024,-97.982889);
		}
	}
  </style>
</svg>
